<svg width="1920" height="722" viewBox="0 0 1920 722" fill="none" xmlns="http://www.w3.org/2000/svg">
    <g opacity="0.2">
        <rect width="10.8519" height="671.418" transform="matrix(-1 0 0 1 1919 50.5818)" fill="#5758BB"/>
        <rect width="10.8519" height="625.737" transform="matrix(-1 0 0 1 1907.15 96.2628)" fill="#5A5BBC"/>
        <rect width="10.8519" height="712.5" transform="matrix(-1 0 0 1 1895.3 9.5)" fill="#5C5DBD"/>
        <rect width="10.8519" height="691.53" transform="matrix(-1 0 0 1 1883.44 30.4697)" fill="#5F60BE"/>
        <rect width="10.8519" height="621.06" transform="matrix(-1 0 0 1 1871.59 100.94)" fill="#5F60BE"/>
        <rect width="10.8519" height="629.245" transform="matrix(-1 0 0 1 1859.74 92.7549)" fill="#6263BF"/>
        <rect width="10.8519" height="529.308" transform="matrix(-1 0 0 1 1847.89 192.692)" fill="#6364C0"/>
        <rect width="10.8519" height="691.53" transform="matrix(-1 0 0 1 1836.04 30.4697)" fill="#6666C1"/>
        <rect width="10.8519" height="677.265" transform="matrix(-1 0 0 1 1824.19 44.7354)" fill="#6666C1"/>
        <rect width="10.8519" height="532.348" transform="matrix(-1 0 0 1 1812.33 189.652)" fill="#6969C2"/>
        <rect width="10.8519" height="628.309" transform="matrix(-1 0 0 1 1800.48 93.6907)" fill="#696AC2"/>
        <rect width="10.8519" height="554.331" transform="matrix(-1 0 0 1 1788.63 167.669)" fill="#6C6DC4"/>
        <rect width="10.8519" height="658.945" transform="matrix(-1 0 0 1 1776.78 63.0546)" fill="#6D6EC4"/>
        <rect width="10.8519" height="689.581" transform="matrix(-1 0 0 1 1764.93 32.4185)" fill="#6D6EC4"/>
        <rect width="10.8519" height="646.317" transform="matrix(-1 0 0 1 1753.07 75.6829)" fill="#6D6EC4"/>
        <rect width="10.8519" height="560.879" transform="matrix(-1 0 0 1 1741.22 161.121)" fill="#6D6EC4"/>
        <rect width="10.8519" height="641.25" transform="matrix(-1 0 0 1 1729.37 80.75)" fill="#7071C5"/>
        <rect width="10.8519" height="547.939" transform="matrix(-1 0 0 1 1717.52 174.061)" fill="#7172C5"/>
        <rect width="10.8519" height="532.114" transform="matrix(-1 0 0 1 1705.67 189.886)" fill="#7172C6"/>
        <rect width="10.8519" height="620.748" transform="matrix(-1 0 0 1 1693.81 101.252)" fill="#7273C6"/>
        <rect width="10.8519" height="579.354" transform="matrix(-1 0 0 1 1681.96 142.646)" fill="#7374C6"/>
        <rect width="10.8519" height="526.813" transform="matrix(-1 0 0 1 1670.11 195.187)" fill="#7475C7"/>
        <rect width="10.8519" height="635.637" transform="matrix(-1 0 0 1 1658.26 86.3628)" fill="#7475C7"/>
        <rect width="10.8519" height="587.228" transform="matrix(-1 0 0 1 1646.41 134.772)" fill="#7576C7"/>
        <rect width="10.8519" height="541.157" transform="matrix(-1 0 0 1 1634.56 180.843)" fill="#7676C7"/>
        <rect width="10.8519" height="567.193" transform="matrix(-1 0 0 1 1622.7 154.806)" fill="#7677C8"/>
        <rect width="10.8519" height="509.819" transform="matrix(-1 0 0 1 1610.85 212.18)" fill="#7677C8"/>
        <rect width="10.8519" height="630.492" transform="matrix(-1 0 0 1 1599 91.5077)" fill="#7878C8"/>
        <rect width="10.8519" height="544.275" transform="matrix(-1 0 0 1 1587.15 177.725)" fill="#7879C8"/>
        <rect width="10.8519" height="497.269" transform="matrix(-1 0 0 1 1575.3 224.731)" fill="#797AC9"/>
        <rect width="10.8519" height="434.75" transform="matrix(-1 0 0 1 1563.44 287.25)" fill="#7B7CCA"/>
        <rect width="10.8519" height="508.416" transform="matrix(-1 0 0 1 1551.59 213.583)" fill="#7C7DCA"/>
        <rect width="10.8519" height="466.165" transform="matrix(-1 0 0 1 1539.74 255.835)" fill="#7C7DCA"/>
        <rect width="10.8519" height="551.057" transform="matrix(-1 0 0 1 1527.89 170.943)" fill="#7D7DCA"/>
        <rect width="10.8519" height="519.564" transform="matrix(-1 0 0 1 1516.04 202.436)" fill="#7D7ECA"/>
        <rect width="10.8519" height="448.703" transform="matrix(-1 0 0 1 1504.19 273.297)" fill="#7D7ECA"/>
        <rect width="10.8519" height="581.537" transform="matrix(-1 0 0 1 1492.33 140.462)" fill="#8181CC"/>
        <rect width="10.8519" height="547.705" transform="matrix(-1 0 0 1 1480.48 174.295)" fill="#8182CC"/>
        <rect width="10.8519" height="451.276" transform="matrix(-1 0 0 1 1468.63 270.724)" fill="#8383CD"/>
        <rect width="10.8519" height="532.738" transform="matrix(-1 0 0 1 1456.78 189.262)" fill="#8384CD"/>
        <rect width="10.8519" height="497.035" transform="matrix(-1 0 0 1 1444.93 224.965)" fill="#8484CD"/>
        <rect width="10.8519" height="420.64" transform="matrix(-1 0 0 1 1433.07 301.36)" fill="#8485CD"/>
        <rect width="10.8519" height="498.36" transform="matrix(-1 0 0 1 1421.22 223.64)" fill="#8485CD"/>
        <rect width="10.8519" height="566.414" transform="matrix(-1 0 0 1 1409.37 155.586)" fill="#8585CD"/>
        <rect width="10.8519" height="484.952" transform="matrix(-1 0 0 1 1397.52 237.048)" fill="#8586CE"/>
        <rect width="10.8519" height="448.002" transform="matrix(-1 0 0 1 1385.67 273.998)" fill="#8787CE"/>
        <rect width="10.8519" height="574.287" transform="matrix(-1 0 0 1 1373.81 147.713)" fill="#8A8ACF"/>
        <rect width="10.8519" height="498.594" transform="matrix(-1 0 0 1 1361.96 223.406)" fill="#8B8CD0"/>
        <rect width="10.8519" height="552.538" transform="matrix(-1 0 0 1 1350.11 169.462)" fill="#8B8CD0"/>
        <rect width="10.8519" height="516.835" transform="matrix(-1 0 0 1 1338.26 205.165)" fill="#8C8DD0"/>
        <rect width="10.8519" height="419.938" transform="matrix(-1 0 0 1 1326.41 302.062)" fill="#8F90D2"/>
        <rect width="10.8519" height="415.651" transform="matrix(-1 0 0 1 1314.56 306.349)" fill="#9091D2"/>
        <rect width="10.8519" height="397.254" transform="matrix(-1 0 0 1 1302.7 324.746)" fill="#9191D2"/>
        <rect width="10.8519" height="390.706" transform="matrix(-1 0 0 1 1290.85 331.294)" fill="#9191D2"/>
        <rect width="10.8519" height="440.44" transform="matrix(-1 0 0 1 1279 281.56)" fill="#9495D4"/>
        <rect width="10.8519" height="389.692" transform="matrix(-1 0 0 1 1267.15 332.307)" fill="#9696D4"/>
        <rect width="10.8519" height="607.73" transform="matrix(-1 0 0 1 1255.3 114.27)" fill="#9898D5"/>
        <rect width="10.8519" height="366.618" transform="matrix(-1 0 0 1 1243.44 355.382)" fill="#9899D5"/>
        <rect width="10.8519" height="401.853" transform="matrix(-1 0 0 1 1231.59 320.147)" fill="#999AD6"/>
        <rect width="10.8519" height="469.829" transform="matrix(-1 0 0 1 1219.74 252.171)" fill="#9A9BD6"/>
        <rect width="10.8519" height="437.4" transform="matrix(-1 0 0 1 1207.89 284.6)" fill="#9A9BD6"/>
        <rect width="10.8519" height="355.392" transform="matrix(-1 0 0 1 1196.04 366.607)" fill="#9B9CD7"/>
        <rect width="10.8519" height="387.587" transform="matrix(-1 0 0 1 1184.19 334.412)" fill="#9D9ED7"/>
        <rect width="10.8519" height="333.721" transform="matrix(-1 0 0 1 1172.33 388.279)" fill="#9F9FD8"/>
        <rect width="10.8519" height="595.725" transform="matrix(-1 0 0 1 1160.48 126.275)" fill="#9FA0D8"/>
        <rect width="10.8519" height="389.848" transform="matrix(-1 0 0 1 1148.63 332.152)" fill="#A0A0D8"/>
        <rect width="10.8519" height="412.221" transform="matrix(-1 0 0 1 1136.78 309.779)" fill="#A0A0D8"/>
        <rect width="10.8519" height="412.767" transform="matrix(-1 0 0 1 1124.93 309.234)" fill="#A0A0D9"/>
        <rect width="10.8519" height="404.737" transform="matrix(-1 0 0 1 1113.07 317.262)" fill="#A0A1D9"/>
        <rect width="10.8519" height="453.77" transform="matrix(-1 0 0 1 1101.22 268.229)" fill="#A1A1D9"/>
        <rect width="10.8519" height="449.639" transform="matrix(-1 0 0 1 1089.37 272.361)" fill="#A2A2D9"/>
        <rect width="10.8519" height="477.157" transform="matrix(-1 0 0 1 1077.52 244.843)" fill="#A2A3D9"/>
        <rect width="10.8519" height="390.394" transform="matrix(-1 0 0 1 1065.67 331.606)" fill="#A2A3D9"/>
        <rect width="10.8519" height="501.79" transform="matrix(-1 0 0 1 1053.81 220.21)" fill="#A2A3D9"/>
        <rect width="10.8519" height="317.507" transform="matrix(-1 0 0 1 1041.96 404.493)" fill="#A3A4DA"/>
        <rect width="10.8519" height="503.973" transform="matrix(-1 0 0 1 1030.11 218.027)" fill="#A3A4DA"/>
        <rect width="10.8519" height="462.345" transform="matrix(-1 0 0 1 1018.26 259.654)" fill="#A4A4DA"/>
        <rect width="10.8519" height="374.023" transform="matrix(-1 0 0 1 1006.41 347.976)" fill="#A5A5DA"/>
        <rect width="10.8519" height="303.085" transform="matrix(-1 0 0 1 994.556 418.915)" fill="#A5A6DB"/>
        <rect width="10.8519" height="350.871" transform="matrix(-1 0 0 1 982.704 371.128)" fill="#A5A6DB"/>
        <rect width="10.8519" height="383.534" transform="matrix(-1 0 0 1 970.852 338.466)" fill="#A7A7DB"/>
        <rect width="10.8519" height="322.184" transform="matrix(-1 0 0 1 959 399.816)" fill="#A8A9DC"/>
        <rect width="10.8519" height="435.451" transform="matrix(-1 0 0 1 947.148 286.549)" fill="#A9A9DC"/>
        <rect width="10.8519" height="450.107" transform="matrix(-1 0 0 1 935.297 271.893)" fill="#A9A9DC"/>
        <rect width="10.8519" height="339.256" transform="matrix(-1 0 0 1 923.444 382.744)" fill="#AAAADC"/>
        <rect width="10.8519" height="372.308" transform="matrix(-1 0 0 1 911.593 349.691)" fill="#AAABDD"/>
        <rect width="10.8519" height="355.782" transform="matrix(-1 0 0 1 899.741 366.217)" fill="#AAABDD"/>
        <rect width="10.8519" height="390.238" transform="matrix(-1 0 0 1 887.889 331.762)" fill="#ABABDD"/>
        <rect width="10.8519" height="459.227" transform="matrix(-1 0 0 1 876.037 262.773)" fill="#ACACDD"/>
        <rect width="10.8519" height="349.936" transform="matrix(-1 0 0 1 864.186 372.064)" fill="#ACADDE"/>
        <rect width="10.8519" height="352.196" transform="matrix(-1 0 0 1 852.333 369.803)" fill="#ACADDE"/>
        <rect width="10.8519" height="309.711" transform="matrix(-1 0 0 1 840.481 412.289)" fill="#ADAEDE"/>
        <rect width="10.8519" height="307.373" transform="matrix(-1 0 0 1 828.63 414.627)" fill="#AEAFDE"/>
        <rect width="10.8519" height="400.684" transform="matrix(-1 0 0 1 816.778 321.316)" fill="#AFAFDE"/>
        <rect width="10.8519" height="293.419" transform="matrix(-1 0 0 1 804.926 428.581)" fill="#AFB0DF"/>
        <rect width="10.8519" height="471.232" transform="matrix(-1 0 0 1 793.074 250.768)" fill="#B0B1DF"/>
        <rect width="10.8519" height="264.654" transform="matrix(-1 0 0 1 781.223 457.346)" fill="#B1B1DF"/>
        <rect width="10.8519" height="388.289" transform="matrix(-1 0 0 1 769.37 333.711)" fill="#B1B2DF"/>
        <rect width="10.8519" height="377.142" transform="matrix(-1 0 0 1 757.519 344.859)" fill="#B2B2E0"/>
        <rect width="10.8519" height="396.708" transform="matrix(-1 0 0 1 745.667 325.292)" fill="#B3B3E0"/>
        <rect width="10.8519" height="291.08" transform="matrix(-1 0 0 1 733.814 430.92)" fill="#B3B3E0"/>
        <rect width="10.8519" height="356.718" transform="matrix(-1 0 0 1 721.963 365.282)" fill="#B3B3E0"/>
        <rect width="10.8519" height="325.692" transform="matrix(-1 0 0 1 710.111 396.308)" fill="#B3B4E0"/>
        <rect width="10.8519" height="329.979" transform="matrix(-1 0 0 1 698.26 392.02)" fill="#B4B4E1"/>
        <rect width="10.8519" height="425.083" transform="matrix(-1 0 0 1 686.407 296.917)" fill="#B5B5E1"/>
        <rect width="10.8519" height="274.866" transform="matrix(-1 0 0 1 674.556 447.134)" fill="#B5B5E1"/>
        <rect width="10.8519" height="345.18" transform="matrix(-1 0 0 1 662.704 376.819)" fill="#B5B5E1"/>
        <rect width="10.8519" height="295.758" transform="matrix(-1 0 0 1 650.852 426.242)" fill="#B5B6E1"/>
        <rect width="10.8519" height="383.612" transform="matrix(-1 0 0 1 639 338.388)" fill="#B5B6E1"/>
        <rect width="10.8519" height="331.538" transform="matrix(-1 0 0 1 627.148 390.461)" fill="#B6B6E1"/>
        <rect width="10.8519" height="360.226" transform="matrix(-1 0 0 1 615.296 361.775)" fill="#B6B6E1"/>
        <rect width="10.8519" height="292.172" transform="matrix(-1 0 0 1 603.444 429.828)" fill="#B6B7E2"/>
        <rect width="10.8519" height="277.75" transform="matrix(-1 0 0 1 591.593 444.25)" fill="#B7B7E2"/>
        <rect width="10.8519" height="449.405" transform="matrix(-1 0 0 1 579.741 272.595)" fill="#B7B7E2"/>
        <rect width="10.8519" height="311.115" transform="matrix(-1 0 0 1 567.889 410.885)" fill="#B7B8E2"/>
        <rect width="10.8519" height="270.89" transform="matrix(-1 0 0 1 556.037 451.11)" fill="#B7B8E2"/>
        <rect width="10.8519" height="329.2" transform="matrix(-1 0 0 1 544.186 392.8)" fill="#B7B8E2"/>
        <rect width="10.8519" height="283.831" transform="matrix(-1 0 0 1 532.333 438.169)" fill="#B8B8E2"/>
        <rect width="10.8519" height="374.413" transform="matrix(-1 0 0 1 520.481 347.587)" fill="#B9BAE3"/>
        <rect width="10.8519" height="364.045" transform="matrix(-1 0 0 1 508.63 357.955)" fill="#B9BAE3"/>
        <rect width="10.8519" height="322.886" transform="matrix(-1 0 0 1 496.777 399.114)" fill="#BABBE3"/>
        <rect width="10.8519" height="249.453" transform="matrix(-1 0 0 1 484.926 472.547)" fill="#BBBBE3"/>
        <rect width="10.8519" height="305.034" transform="matrix(-1 0 0 1 473.074 416.965)" fill="#BBBBE3"/>
        <rect width="10.8519" height="308.932" transform="matrix(-1 0 0 1 461.223 413.068)" fill="#BBBBE3"/>
        <rect width="10.8519" height="324.367" transform="matrix(-1 0 0 1 449.37 397.633)" fill="#BBBCE4"/>
        <rect width="10.8519" height="337.073" transform="matrix(-1 0 0 1 437.519 384.927)" fill="#BBBCE4"/>
        <rect width="10.8519" height="336.45" transform="matrix(-1 0 0 1 425.667 385.55)" fill="#BBBCE4"/>
        <rect width="10.8519" height="344.011" transform="matrix(-1 0 0 1 413.814 377.988)" fill="#BCBCE4"/>
        <rect width="10.8519" height="369.424" transform="matrix(-1 0 0 1 401.963 352.575)" fill="#BCBCE4"/>
        <rect width="10.8519" height="353.911" transform="matrix(-1 0 0 1 390.111 368.088)" fill="#BDBDE4"/>
        <rect width="10.8519" height="334.189" transform="matrix(-1 0 0 1 378.26 387.811)" fill="#BDBEE4"/>
        <rect width="10.8519" height="344.791" transform="matrix(-1 0 0 1 366.407 377.209)" fill="#BEBEE4"/>
        <rect width="10.8519" height="305.19" transform="matrix(-1 0 0 1 354.556 416.81)" fill="#BEBEE5"/>
        <rect width="10.8519" height="296.069" transform="matrix(-1 0 0 1 342.704 425.93)" fill="#BFBFE5"/>
        <rect width="10.8519" height="367.865" transform="matrix(-1 0 0 1 330.852 354.135)" fill="#C0C0E6"/>
        <rect width="10.8519" height="236.98" transform="matrix(-1 0 0 1 319 485.019)" fill="#C1C1E6"/>
        <rect width="10.8519" height="231.991" transform="matrix(-1 0 0 1 307.148 490.008)" fill="#C1C1E6"/>
        <rect width="10.8519" height="338.009" transform="matrix(-1 0 0 1 295.296 383.991)" fill="#C2C3E6"/>
        <rect width="10.8519" height="283.207" transform="matrix(-1 0 0 1 283.444 438.793)" fill="#C3C3E7"/>
        <rect width="10.8519" height="447.846" transform="matrix(-1 0 0 1 271.593 274.154)" fill="#C3C4E7"/>
        <rect width="10.8519" height="301.994" transform="matrix(-1 0 0 1 259.74 420.006)" fill="#C4C5E7"/>
        <rect width="10.8519" height="341.75" transform="matrix(-1 0 0 1 247.889 380.249)" fill="#C8C8E9"/>
        <rect width="10.8519" height="316.259" transform="matrix(-1 0 0 1 236.037 405.74)" fill="#C9C9E9"/>
        <rect width="10.8519" height="220.766" transform="matrix(-1 0 0 1 224.186 501.234)" fill="#CDCDEB"/>
        <rect width="10.8519" height="230.432" transform="matrix(-1 0 0 1 212.333 491.567)" fill="#CECEEB"/>
        <rect width="10.8519" height="323.353" transform="matrix(-1 0 0 1 200.481 398.646)" fill="#CECFEB"/>
        <rect width="10.8519" height="284.22" transform="matrix(-1 0 0 1 188.63 437.779)" fill="#CECFEB"/>
        <rect width="10.8519" height="335.748" transform="matrix(-1 0 0 1 176.778 386.252)" fill="#CFCFEB"/>
        <rect width="10.8519" height="246.179" transform="matrix(-1 0 0 1 164.926 475.821)" fill="#D0D1EC"/>
        <rect width="10.8519" height="266.681" transform="matrix(-1 0 0 1 153.074 455.319)" fill="#D1D1EC"/>
        <rect width="10.8519" height="248.206" transform="matrix(-1 0 0 1 141.223 473.794)" fill="#D3D3ED"/>
        <rect width="10.8519" height="265.667" transform="matrix(-1 0 0 1 129.37 456.333)" fill="#DBDCF1"/>
        <rect width="10.8519" height="276.347" transform="matrix(-1 0 0 1 117.519 445.653)" fill="#DCDCF1"/>
        <rect width="10.8519" height="142.188" transform="matrix(-1 0 0 1 105.667 579.812)" fill="#DEDEF2"/>
        <rect width="10.8519" height="192.624" transform="matrix(-1 0 0 1 93.8145 529.375)" fill="#E1E1F3"/>
        <rect width="10.8519" height="227.626" transform="matrix(-1 0 0 1 81.9629 494.374)" fill="#E1E2F3"/>
        <rect width="10.8519" height="326.939" transform="matrix(-1 0 0 1 70.1113 395.061)" fill="#E4E4F4"/>
        <rect width="10.8519" height="201.043" transform="matrix(-1 0 0 1 58.2598 520.956)" fill="#E8E8F6"/>
        <rect width="10.8519" height="143.357" transform="matrix(-1 0 0 1 46.4072 578.642)" fill="#E9E9F6"/>
        <rect width="10.8519" height="187.791" transform="matrix(-1 0 0 1 34.5557 534.208)" fill="#F2F2FA"/>
        <rect width="10.8519" height="119.737" transform="matrix(-1 0 0 1 22.7041 602.262)" fill="#F6F6FB"/>
        <rect width="10.8519" height="101.496" transform="matrix(-1 0 0 1 10.8516 620.503)" fill="white"/>
    </g>
    <rect width="1922" height="722" fill="url(#paint0_linear)"/>
    <defs>
        <linearGradient id="paint0_linear" x1="0" y1="722" x2="1922" y2="722" gradientUnits="userSpaceOnUse">
            <stop stop-color="#22283C" stop-opacity="0"/>
            <stop offset="0.255208" stop-color="#22283C"/>
            <stop offset="0.682292" stop-color="#22283C"/>
            <stop offset="1" stop-color="#22283C" stop-opacity="0"/>
        </linearGradient>
    </defs>
</svg>
