<svg width="1920" height="722" viewBox="0 0 1920 722" fill="none" xmlns="http://www.w3.org/2000/svg">
    <g opacity="0.2">
        <rect width="10.8519" height="671.418" transform="matrix(1 8.74228e-08 8.74228e-08 -1 3 671.418)" fill="#5758BB"/>
        <rect width="10.8519" height="625.737" transform="matrix(1 8.74228e-08 8.74228e-08 -1 14.8516 625.737)" fill="#5A5BBC"/>
        <rect width="10.8519" height="712.5" transform="matrix(1 8.74228e-08 8.74228e-08 -1 26.7031 712.5)" fill="#5C5DBD"/>
        <rect width="10.8519" height="691.53" transform="matrix(1 8.74228e-08 8.74228e-08 -1 38.5557 691.53)" fill="#5F60BE"/>
        <rect width="10.8519" height="621.06" transform="matrix(1 8.74228e-08 8.74228e-08 -1 50.4072 621.06)" fill="#5F60BE"/>
        <rect width="10.8519" height="629.245" transform="matrix(1 8.74228e-08 8.74228e-08 -1 62.2598 629.245)" fill="#6263BF"/>
        <rect width="10.8519" height="529.308" transform="matrix(1 8.74228e-08 8.74228e-08 -1 74.1113 529.308)" fill="#6364C0"/>
        <rect width="10.8519" height="691.53" transform="matrix(1 8.74228e-08 8.74228e-08 -1 85.9629 691.53)" fill="#6666C1"/>
        <rect width="10.8519" height="677.265" transform="matrix(1 8.74228e-08 8.74228e-08 -1 97.8145 677.265)" fill="#6666C1"/>
        <rect width="10.8519" height="532.348" transform="matrix(1 8.74228e-08 8.74228e-08 -1 109.667 532.348)" fill="#6969C2"/>
        <rect width="10.8519" height="628.309" transform="matrix(1 8.74228e-08 8.74228e-08 -1 121.519 628.309)" fill="#696AC2"/>
        <rect width="10.8519" height="554.331" transform="matrix(1 8.74228e-08 8.74228e-08 -1 133.37 554.331)" fill="#6C6DC4"/>
        <rect width="10.8519" height="658.945" transform="matrix(1 8.74228e-08 8.74228e-08 -1 145.223 658.945)" fill="#6D6EC4"/>
        <rect width="10.8519" height="689.581" transform="matrix(1 8.74228e-08 8.74228e-08 -1 157.074 689.582)" fill="#6D6EC4"/>
        <rect width="10.8519" height="646.317" transform="matrix(1 8.74228e-08 8.74228e-08 -1 168.926 646.317)" fill="#6D6EC4"/>
        <rect width="10.8519" height="560.879" transform="matrix(1 8.74228e-08 8.74228e-08 -1 180.777 560.879)" fill="#6D6EC4"/>
        <rect width="10.8519" height="641.25" transform="matrix(1 8.74228e-08 8.74228e-08 -1 192.63 641.25)" fill="#7071C5"/>
        <rect width="10.8519" height="547.939" transform="matrix(1 8.74228e-08 8.74228e-08 -1 204.481 547.939)" fill="#7172C5"/>
        <rect width="10.8519" height="532.114" transform="matrix(1 8.74228e-08 8.74228e-08 -1 216.333 532.114)" fill="#7172C6"/>
        <rect width="10.8519" height="620.748" transform="matrix(1 8.74228e-08 8.74228e-08 -1 228.186 620.748)" fill="#7273C6"/>
        <rect width="10.8519" height="579.354" transform="matrix(1 8.74228e-08 8.74228e-08 -1 240.037 579.354)" fill="#7374C6"/>
        <rect width="10.8519" height="526.813" transform="matrix(1 8.74228e-08 8.74228e-08 -1 251.889 526.813)" fill="#7475C7"/>
        <rect width="10.8519" height="635.637" transform="matrix(1 8.74228e-08 8.74228e-08 -1 263.741 635.637)" fill="#7475C7"/>
        <rect width="10.8519" height="587.228" transform="matrix(1 8.74228e-08 8.74228e-08 -1 275.593 587.228)" fill="#7576C7"/>
        <rect width="10.8519" height="541.157" transform="matrix(1 8.74228e-08 8.74228e-08 -1 287.444 541.157)" fill="#7676C7"/>
        <rect width="10.8519" height="567.193" transform="matrix(1 8.74228e-08 8.74228e-08 -1 299.296 567.193)" fill="#7677C8"/>
        <rect width="10.8519" height="509.819" transform="matrix(1 8.74228e-08 8.74228e-08 -1 311.148 509.819)" fill="#7677C8"/>
        <rect width="10.8519" height="630.492" transform="matrix(1 8.74228e-08 8.74228e-08 -1 323 630.492)" fill="#7878C8"/>
        <rect width="10.8519" height="544.275" transform="matrix(1 8.74228e-08 8.74228e-08 -1 334.852 544.275)" fill="#7879C8"/>
        <rect width="10.8519" height="497.269" transform="matrix(1 8.74228e-08 8.74228e-08 -1 346.704 497.269)" fill="#797AC9"/>
        <rect width="10.8519" height="434.75" transform="matrix(1 8.74228e-08 8.74228e-08 -1 358.556 434.75)" fill="#7B7CCA"/>
        <rect width="10.8519" height="508.416" transform="matrix(1 8.74228e-08 8.74228e-08 -1 370.407 508.417)" fill="#7C7DCA"/>
        <rect width="10.8519" height="466.165" transform="matrix(1 8.74228e-08 8.74228e-08 -1 382.26 466.165)" fill="#7C7DCA"/>
        <rect width="10.8519" height="551.057" transform="matrix(1 8.74228e-08 8.74228e-08 -1 394.111 551.057)" fill="#7D7DCA"/>
        <rect width="10.8519" height="519.564" transform="matrix(1 8.74228e-08 8.74228e-08 -1 405.963 519.563)" fill="#7D7ECA"/>
        <rect width="10.8519" height="448.703" transform="matrix(1 8.74228e-08 8.74228e-08 -1 417.814 448.703)" fill="#7D7ECA"/>
        <rect width="10.8519" height="581.537" transform="matrix(1 8.74228e-08 8.74228e-08 -1 429.667 581.538)" fill="#8181CC"/>
        <rect width="10.8519" height="547.705" transform="matrix(1 8.74228e-08 8.74228e-08 -1 441.519 547.705)" fill="#8182CC"/>
        <rect width="10.8519" height="451.276" transform="matrix(1 8.74228e-08 8.74228e-08 -1 453.37 451.276)" fill="#8383CD"/>
        <rect width="10.8519" height="532.738" transform="matrix(1 8.74228e-08 8.74228e-08 -1 465.223 532.738)" fill="#8384CD"/>
        <rect width="10.8519" height="497.035" transform="matrix(1 8.74228e-08 8.74228e-08 -1 477.074 497.035)" fill="#8484CD"/>
        <rect width="10.8519" height="420.64" transform="matrix(1 8.74228e-08 8.74228e-08 -1 488.926 420.64)" fill="#8485CD"/>
        <rect width="10.8519" height="498.36" transform="matrix(1 8.74228e-08 8.74228e-08 -1 500.777 498.36)" fill="#8485CD"/>
        <rect width="10.8519" height="566.414" transform="matrix(1 8.74228e-08 8.74228e-08 -1 512.63 566.414)" fill="#8585CD"/>
        <rect width="10.8519" height="484.952" transform="matrix(1 8.74228e-08 8.74228e-08 -1 524.481 484.952)" fill="#8586CE"/>
        <rect width="10.8519" height="448.002" transform="matrix(1 8.74228e-08 8.74228e-08 -1 536.333 448.002)" fill="#8787CE"/>
        <rect width="10.8519" height="574.287" transform="matrix(1 8.74228e-08 8.74228e-08 -1 548.186 574.287)" fill="#8A8ACF"/>
        <rect width="10.8519" height="498.594" transform="matrix(1 8.74228e-08 8.74228e-08 -1 560.037 498.594)" fill="#8B8CD0"/>
        <rect width="10.8519" height="552.538" transform="matrix(1 8.74228e-08 8.74228e-08 -1 571.889 552.538)" fill="#8B8CD0"/>
        <rect width="10.8519" height="516.835" transform="matrix(1 8.74228e-08 8.74228e-08 -1 583.741 516.835)" fill="#8C8DD0"/>
        <rect width="10.8519" height="419.938" transform="matrix(1 8.74228e-08 8.74228e-08 -1 595.593 419.938)" fill="#8F90D2"/>
        <rect width="10.8519" height="415.651" transform="matrix(1 8.74228e-08 8.74228e-08 -1 607.444 415.651)" fill="#9091D2"/>
        <rect width="10.8519" height="397.254" transform="matrix(1 8.74228e-08 8.74228e-08 -1 619.296 397.253)" fill="#9191D2"/>
        <rect width="10.8519" height="390.706" transform="matrix(1 8.74228e-08 8.74228e-08 -1 631.148 390.706)" fill="#9191D2"/>
        <rect width="10.8519" height="440.44" transform="matrix(1 8.74228e-08 8.74228e-08 -1 643 440.44)" fill="#9495D4"/>
        <rect width="10.8519" height="389.692" transform="matrix(1 8.74228e-08 8.74228e-08 -1 654.852 389.692)" fill="#9696D4"/>
        <rect width="10.8519" height="607.73" transform="matrix(1 8.74228e-08 8.74228e-08 -1 666.704 607.729)" fill="#9898D5"/>
        <rect width="10.8519" height="366.618" transform="matrix(1 8.74228e-08 8.74228e-08 -1 678.556 366.618)" fill="#9899D5"/>
        <rect width="10.8519" height="401.853" transform="matrix(1 8.74228e-08 8.74228e-08 -1 690.407 401.853)" fill="#999AD6"/>
        <rect width="10.8519" height="469.829" transform="matrix(1 8.74228e-08 8.74228e-08 -1 702.26 469.829)" fill="#9A9BD6"/>
        <rect width="10.8519" height="437.4" transform="matrix(1 8.74228e-08 8.74228e-08 -1 714.111 437.4)" fill="#9A9BD6"/>
        <rect width="10.8519" height="355.392" transform="matrix(1 8.74228e-08 8.74228e-08 -1 725.963 355.392)" fill="#9B9CD7"/>
        <rect width="10.8519" height="387.587" transform="matrix(1 8.74228e-08 8.74228e-08 -1 737.814 387.588)" fill="#9D9ED7"/>
        <rect width="10.8519" height="333.721" transform="matrix(1 8.74228e-08 8.74228e-08 -1 749.667 333.721)" fill="#9F9FD8"/>
        <rect width="10.8519" height="595.725" transform="matrix(1 8.74228e-08 8.74228e-08 -1 761.519 595.725)" fill="#9FA0D8"/>
        <rect width="10.8519" height="389.848" transform="matrix(1 8.74228e-08 8.74228e-08 -1 773.37 389.848)" fill="#A0A0D8"/>
        <rect width="10.8519" height="412.221" transform="matrix(1 8.74228e-08 8.74228e-08 -1 785.223 412.221)" fill="#A0A0D8"/>
        <rect width="10.8519" height="412.767" transform="matrix(1 8.74228e-08 8.74228e-08 -1 797.074 412.766)" fill="#A0A0D9"/>
        <rect width="10.8519" height="404.737" transform="matrix(1 8.74228e-08 8.74228e-08 -1 808.926 404.738)" fill="#A0A1D9"/>
        <rect width="10.8519" height="453.77" transform="matrix(1 8.74228e-08 8.74228e-08 -1 820.777 453.771)" fill="#A1A1D9"/>
        <rect width="10.8519" height="449.639" transform="matrix(1 8.74228e-08 8.74228e-08 -1 832.63 449.639)" fill="#A2A2D9"/>
        <rect width="10.8519" height="477.157" transform="matrix(1 8.74228e-08 8.74228e-08 -1 844.481 477.157)" fill="#A2A3D9"/>
        <rect width="10.8519" height="390.394" transform="matrix(1 8.74228e-08 8.74228e-08 -1 856.333 390.394)" fill="#A2A3D9"/>
        <rect width="10.8519" height="501.79" transform="matrix(1 8.74228e-08 8.74228e-08 -1 868.186 501.79)" fill="#A2A3D9"/>
        <rect width="10.8519" height="317.507" transform="matrix(1 8.74228e-08 8.74228e-08 -1 880.037 317.507)" fill="#A3A4DA"/>
        <rect width="10.8519" height="503.973" transform="matrix(1 8.74228e-08 8.74228e-08 -1 891.889 503.973)" fill="#A3A4DA"/>
        <rect width="10.8519" height="462.345" transform="matrix(1 8.74228e-08 8.74228e-08 -1 903.74 462.346)" fill="#A4A4DA"/>
        <rect width="10.8519" height="374.023" transform="matrix(1 8.74228e-08 8.74228e-08 -1 915.593 374.024)" fill="#A5A5DA"/>
        <rect width="10.8519" height="303.085" transform="matrix(1 8.74228e-08 8.74228e-08 -1 927.444 303.085)" fill="#A5A6DB"/>
        <rect width="10.8519" height="350.871" transform="matrix(1 8.74228e-08 8.74228e-08 -1 939.296 350.872)" fill="#A5A6DB"/>
        <rect width="10.8519" height="383.534" transform="matrix(1 8.74228e-08 8.74228e-08 -1 951.148 383.534)" fill="#A7A7DB"/>
        <rect width="10.8519" height="322.184" transform="matrix(1 8.74228e-08 8.74228e-08 -1 963 322.184)" fill="#A8A9DC"/>
        <rect width="10.8519" height="435.451" transform="matrix(1 8.74228e-08 8.74228e-08 -1 974.852 435.451)" fill="#A9A9DC"/>
        <rect width="10.8519" height="450.107" transform="matrix(1 8.74228e-08 8.74228e-08 -1 986.703 450.107)" fill="#A9A9DC"/>
        <rect width="10.8519" height="339.256" transform="matrix(1 8.74228e-08 8.74228e-08 -1 998.556 339.256)" fill="#AAAADC"/>
        <rect width="10.8519" height="372.308" transform="matrix(1 8.74228e-08 8.74228e-08 -1 1010.41 372.309)" fill="#AAABDD"/>
        <rect width="10.8519" height="355.782" transform="matrix(1 8.74228e-08 8.74228e-08 -1 1022.26 355.783)" fill="#AAABDD"/>
        <rect width="10.8519" height="390.238" transform="matrix(1 8.74228e-08 8.74228e-08 -1 1034.11 390.238)" fill="#ABABDD"/>
        <rect width="10.8519" height="459.227" transform="matrix(1 8.74228e-08 8.74228e-08 -1 1045.96 459.227)" fill="#ACACDD"/>
        <rect width="10.8519" height="349.936" transform="matrix(1 8.74228e-08 8.74228e-08 -1 1057.81 349.936)" fill="#ACADDE"/>
        <rect width="10.8519" height="352.196" transform="matrix(1 8.74228e-08 8.74228e-08 -1 1069.67 352.197)" fill="#ACADDE"/>
        <rect width="10.8519" height="309.711" transform="matrix(1 8.74228e-08 8.74228e-08 -1 1081.52 309.711)" fill="#ADAEDE"/>
        <rect width="10.8519" height="307.373" transform="matrix(1 8.74228e-08 8.74228e-08 -1 1093.37 307.373)" fill="#AEAFDE"/>
        <rect width="10.8519" height="400.684" transform="matrix(1 8.74228e-08 8.74228e-08 -1 1105.22 400.684)" fill="#AFAFDE"/>
        <rect width="10.8519" height="293.419" transform="matrix(1 8.74228e-08 8.74228e-08 -1 1117.07 293.419)" fill="#AFB0DF"/>
        <rect width="10.8519" height="471.232" transform="matrix(1 8.74228e-08 8.74228e-08 -1 1128.93 471.232)" fill="#B0B1DF"/>
        <rect width="10.8519" height="264.654" transform="matrix(1 8.74228e-08 8.74228e-08 -1 1140.78 264.654)" fill="#B1B1DF"/>
        <rect width="10.8519" height="388.289" transform="matrix(1 8.74228e-08 8.74228e-08 -1 1152.63 388.289)" fill="#B1B2DF"/>
        <rect width="10.8519" height="377.142" transform="matrix(1 8.74228e-08 8.74228e-08 -1 1164.48 377.141)" fill="#B2B2E0"/>
        <rect width="10.8519" height="396.708" transform="matrix(1 8.74228e-08 8.74228e-08 -1 1176.33 396.708)" fill="#B3B3E0"/>
        <rect width="10.8519" height="291.08" transform="matrix(1 8.74228e-08 8.74228e-08 -1 1188.19 291.08)" fill="#B3B3E0"/>
        <rect width="10.8519" height="356.718" transform="matrix(1 8.74228e-08 8.74228e-08 -1 1200.04 356.718)" fill="#B3B3E0"/>
        <rect width="10.8519" height="325.692" transform="matrix(1 8.74228e-08 8.74228e-08 -1 1211.89 325.692)" fill="#B3B4E0"/>
        <rect width="10.8519" height="329.979" transform="matrix(1 8.74228e-08 8.74228e-08 -1 1223.74 329.979)" fill="#B4B4E1"/>
        <rect width="10.8519" height="425.083" transform="matrix(1 8.74228e-08 8.74228e-08 -1 1235.59 425.083)" fill="#B5B5E1"/>
        <rect width="10.8519" height="274.866" transform="matrix(1 8.74228e-08 8.74228e-08 -1 1247.44 274.866)" fill="#B5B5E1"/>
        <rect width="10.8519" height="345.18" transform="matrix(1 8.74228e-08 8.74228e-08 -1 1259.3 345.18)" fill="#B5B5E1"/>
        <rect width="10.8519" height="295.758" transform="matrix(1 8.74228e-08 8.74228e-08 -1 1271.15 295.758)" fill="#B5B6E1"/>
        <rect width="10.8519" height="383.612" transform="matrix(1 8.74228e-08 8.74228e-08 -1 1283 383.612)" fill="#B5B6E1"/>
        <rect width="10.8519" height="331.538" transform="matrix(1 8.74228e-08 8.74228e-08 -1 1294.85 331.539)" fill="#B6B6E1"/>
        <rect width="10.8519" height="360.226" transform="matrix(1 8.74228e-08 8.74228e-08 -1 1306.7 360.225)" fill="#B6B6E1"/>
        <rect width="10.8519" height="292.172" transform="matrix(1 8.74228e-08 8.74228e-08 -1 1318.56 292.171)" fill="#B6B7E2"/>
        <rect width="10.8519" height="277.75" transform="matrix(1 8.74228e-08 8.74228e-08 -1 1330.41 277.75)" fill="#B7B7E2"/>
        <rect width="10.8519" height="449.405" transform="matrix(1 8.74228e-08 8.74228e-08 -1 1342.26 449.405)" fill="#B7B7E2"/>
        <rect width="10.8519" height="311.115" transform="matrix(1 8.74228e-08 8.74228e-08 -1 1354.11 311.115)" fill="#B7B8E2"/>
        <rect width="10.8519" height="270.89" transform="matrix(1 8.74228e-08 8.74228e-08 -1 1365.96 270.89)" fill="#B7B8E2"/>
        <rect width="10.8519" height="329.2" transform="matrix(1 8.74228e-08 8.74228e-08 -1 1377.81 329.2)" fill="#B7B8E2"/>
        <rect width="10.8519" height="283.831" transform="matrix(1 8.74228e-08 8.74228e-08 -1 1389.67 283.831)" fill="#B8B8E2"/>
        <rect width="10.8519" height="374.413" transform="matrix(1 8.74228e-08 8.74228e-08 -1 1401.52 374.413)" fill="#B9BAE3"/>
        <rect width="10.8519" height="364.045" transform="matrix(1 8.74228e-08 8.74228e-08 -1 1413.37 364.045)" fill="#B9BAE3"/>
        <rect width="10.8519" height="322.886" transform="matrix(1 8.74228e-08 8.74228e-08 -1 1425.22 322.886)" fill="#BABBE3"/>
        <rect width="10.8519" height="249.453" transform="matrix(1 8.74228e-08 8.74228e-08 -1 1437.07 249.453)" fill="#BBBBE3"/>
        <rect width="10.8519" height="305.034" transform="matrix(1 8.74228e-08 8.74228e-08 -1 1448.93 305.034)" fill="#BBBBE3"/>
        <rect width="10.8519" height="308.932" transform="matrix(1 8.74228e-08 8.74228e-08 -1 1460.78 308.932)" fill="#BBBBE3"/>
        <rect width="10.8519" height="324.367" transform="matrix(1 8.74228e-08 8.74228e-08 -1 1472.63 324.367)" fill="#BBBCE4"/>
        <rect width="10.8519" height="337.073" transform="matrix(1 8.74228e-08 8.74228e-08 -1 1484.48 337.073)" fill="#BBBCE4"/>
        <rect width="10.8519" height="336.45" transform="matrix(1 8.74228e-08 8.74228e-08 -1 1496.33 336.45)" fill="#BBBCE4"/>
        <rect width="10.8519" height="344.011" transform="matrix(1 8.74228e-08 8.74228e-08 -1 1508.19 344.011)" fill="#BCBCE4"/>
        <rect width="10.8519" height="369.424" transform="matrix(1 8.74228e-08 8.74228e-08 -1 1520.04 369.425)" fill="#BCBCE4"/>
        <rect width="10.8519" height="353.911" transform="matrix(1 8.74228e-08 8.74228e-08 -1 1531.89 353.912)" fill="#BDBDE4"/>
        <rect width="10.8519" height="334.189" transform="matrix(1 8.74228e-08 8.74228e-08 -1 1543.74 334.189)" fill="#BDBEE4"/>
        <rect width="10.8519" height="344.791" transform="matrix(1 8.74228e-08 8.74228e-08 -1 1555.59 344.791)" fill="#BEBEE4"/>
        <rect width="10.8519" height="305.19" transform="matrix(1 8.74228e-08 8.74228e-08 -1 1567.44 305.19)" fill="#BEBEE5"/>
        <rect width="10.8519" height="296.069" transform="matrix(1 8.74228e-08 8.74228e-08 -1 1579.3 296.07)" fill="#BFBFE5"/>
        <rect width="10.8519" height="367.865" transform="matrix(1 8.74228e-08 8.74228e-08 -1 1591.15 367.865)" fill="#C0C0E6"/>
        <rect width="10.8519" height="236.98" transform="matrix(1 8.74228e-08 8.74228e-08 -1 1603 236.981)" fill="#C1C1E6"/>
        <rect width="10.8519" height="231.991" transform="matrix(1 8.74228e-08 8.74228e-08 -1 1614.85 231.992)" fill="#C1C1E6"/>
        <rect width="10.8519" height="338.009" transform="matrix(1 8.74228e-08 8.74228e-08 -1 1626.7 338.009)" fill="#C2C3E6"/>
        <rect width="10.8519" height="283.207" transform="matrix(1 8.74228e-08 8.74228e-08 -1 1638.56 283.207)" fill="#C3C3E7"/>
        <rect width="10.8519" height="447.846" transform="matrix(1 8.74228e-08 8.74228e-08 -1 1650.41 447.846)" fill="#C3C4E7"/>
        <rect width="10.8519" height="301.994" transform="matrix(1 8.74228e-08 8.74228e-08 -1 1662.26 301.994)" fill="#C4C5E7"/>
        <rect width="10.8519" height="341.75" transform="matrix(1 8.74228e-08 8.74228e-08 -1 1674.11 341.751)" fill="#C8C8E9"/>
        <rect width="10.8519" height="316.259" transform="matrix(1 8.74228e-08 8.74228e-08 -1 1685.96 316.26)" fill="#C9C9E9"/>
        <rect width="10.8519" height="220.766" transform="matrix(1 8.74228e-08 8.74228e-08 -1 1697.81 220.766)" fill="#CDCDEB"/>
        <rect width="10.8519" height="230.432" transform="matrix(1 8.74228e-08 8.74228e-08 -1 1709.67 230.433)" fill="#CECEEB"/>
        <rect width="10.8519" height="323.353" transform="matrix(1 8.74228e-08 8.74228e-08 -1 1721.52 323.354)" fill="#CECFEB"/>
        <rect width="10.8519" height="284.22" transform="matrix(1 8.74228e-08 8.74228e-08 -1 1733.37 284.221)" fill="#CECFEB"/>
        <rect width="10.8519" height="335.748" transform="matrix(1 8.74228e-08 8.74228e-08 -1 1745.22 335.748)" fill="#CFCFEB"/>
        <rect width="10.8519" height="246.179" transform="matrix(1 8.74228e-08 8.74228e-08 -1 1757.07 246.179)" fill="#D0D1EC"/>
        <rect width="10.8519" height="266.681" transform="matrix(1 8.74228e-08 8.74228e-08 -1 1768.93 266.681)" fill="#D1D1EC"/>
        <rect width="10.8519" height="248.206" transform="matrix(1 8.74228e-08 8.74228e-08 -1 1780.78 248.206)" fill="#D3D3ED"/>
        <rect width="10.8519" height="265.667" transform="matrix(1 8.74228e-08 8.74228e-08 -1 1792.63 265.667)" fill="#DBDCF1"/>
        <rect width="10.8519" height="276.347" transform="matrix(1 8.74228e-08 8.74228e-08 -1 1804.48 276.347)" fill="#DCDCF1"/>
        <rect width="10.8519" height="142.188" transform="matrix(1 8.74228e-08 8.74228e-08 -1 1816.33 142.188)" fill="#DEDEF2"/>
        <rect width="10.8519" height="192.624" transform="matrix(1 8.74228e-08 8.74228e-08 -1 1828.19 192.625)" fill="#E1E1F3"/>
        <rect width="10.8519" height="227.626" transform="matrix(1 8.74228e-08 8.74228e-08 -1 1840.04 227.626)" fill="#E1E2F3"/>
        <rect width="10.8519" height="326.939" transform="matrix(1 8.74228e-08 8.74228e-08 -1 1851.89 326.939)" fill="#E4E4F4"/>
        <rect width="10.8519" height="201.043" transform="matrix(1 8.74228e-08 8.74228e-08 -1 1863.74 201.044)" fill="#E8E8F6"/>
        <rect width="10.8519" height="143.357" transform="matrix(1 8.74228e-08 8.74228e-08 -1 1875.59 143.358)" fill="#E9E9F6"/>
        <rect width="10.8519" height="187.791" transform="matrix(1 8.74228e-08 8.74228e-08 -1 1887.44 187.792)" fill="#F2F2FA"/>
        <rect width="10.8519" height="119.737" transform="matrix(1 8.74228e-08 8.74228e-08 -1 1899.3 119.738)" fill="#F6F6FB"/>
        <rect width="10.8519" height="101.496" transform="matrix(1 8.74228e-08 8.74228e-08 -1 1911.15 101.497)" fill="white"/>
    </g>
    <rect x="1922" y="722" width="1922" height="722" transform="rotate(-180 1922 722)" fill="url(#paint0_linear)"/>
    <defs>
        <linearGradient id="paint0_linear" x1="1922" y1="1444" x2="3844" y2="1444" gradientUnits="userSpaceOnUse">
            <stop stop-color="#22283C" stop-opacity="0"/>
            <stop offset="0.255208" stop-color="#22283C"/>
            <stop offset="0.682292" stop-color="#22283C"/>
            <stop offset="1" stop-color="#22283C" stop-opacity="0"/>
        </linearGradient>
    </defs>
</svg>
