<svg width="1919" height="281" viewBox="0 0 1919 281" fill="none" xmlns="http://www.w3.org/2000/svg">
    <g opacity="0.2">
        <g opacity="0.2">
            <path d="M0 0V280.093" stroke="#F0F0F0"/>
            <path d="M478.704 0V280.093" stroke="#F0F0F0"/>
            <path d="M958.426 0V280.093" stroke="#F0F0F0"/>
            <path d="M1438.15 0V280.093" stroke="#F0F0F0"/>
            <path d="M1917.87 0V280.093" stroke="#F0F0F0"/>
            <path d="M0 280.092H1916.85" stroke="#F0F0F0"/>
            <path d="M0 233.241H1916.85" stroke="#F0F0F0"/>
            <path d="M0 186.389H1916.85" stroke="#F0F0F0"/>
            <path d="M0 139.537H1916.85" stroke="#F0F0F0"/>
            <path d="M0 92.6851H1916.85" stroke="#F0F0F0"/>
            <path d="M0 45.8335H1916.85" stroke="#F0F0F0"/>
        </g>
        <path d="M0 85.5557C0 85.5557 239.352 123.241 478.704 123.241C718.056 123.241 718.056 179.259 958.426 179.259C1197.78 179.259 1197.78 224.074 1437.13 224.074C1676.48 224.074 1916.85 246.482 1916.85 246.482" stroke="#A6CEE3" stroke-width="2"/>
        <path d="M0 76.3887C0 76.3887 239.352 121.203 478.704 121.203C718.056 121.203 718.056 146.666 958.426 146.666C1197.78 146.666 1197.78 204.722 1437.13 204.722C1676.48 204.722 1916.85 251.574 1916.85 251.574" stroke="#1AA3E0" stroke-width="2"/>
        <path d="M0 92.6851C0 92.6851 239.352 144.63 478.704 144.63C718.056 144.63 718.056 179.259 958.426 179.259C1197.78 179.259 1197.78 206.759 1437.13 206.759C1676.48 206.759 1916.85 249.537 1916.85 249.537" stroke="#1AA3E0" stroke-width="2"/>
        <path d="M0 280.092C0 280.092 239.352 144.629 478.704 144.629C718.056 144.629 718.056 246.481 958.426 246.481C1197.78 246.481 1197.78 130.37 1437.13 130.37C1676.48 130.37 1916.85 280.092 1916.85 280.092" stroke="#1AA3E0" stroke-width="2"/>
        <path d="M0 233.241C0 233.241 239.352 190.463 478.704 190.463C718.056 190.463 718.056 137.5 958.426 137.5C1197.78 137.5 1197.78 94.7222 1437.13 94.7222C1676.48 94.7222 1916.85 41.7593 1916.85 41.7593" stroke="#1AA3E0" stroke-width="2"/>
        <path d="M0 226.111C0 226.111 239.352 190.463 478.704 190.463C718.056 190.463 718.056 134.444 958.426 134.444C1197.78 134.444 1197.78 85.5555 1437.13 85.5555C1676.48 85.5555 1916.85 38.7036 1916.85 38.7036" stroke="#1AA3E0" stroke-width="2"/>
    </g>
</svg>
