<svg width="1197" height="1046" viewBox="0 0 1197 1046" fill="none" xmlns="http://www.w3.org/2000/svg">
    <g opacity="0.2" filter="url(#filter0_f)">
        <path fill-rule="evenodd" clip-rule="evenodd" d="M777.589 161.469C824.456 183.126 844.007 242.196 874.966 287.345C909.637 337.909 980.3 378.465 969.36 441.145C958.007 506.193 865.861 501.72 828.592 553.042C791.446 604.197 812.008 700.508 759.534 730.096C708.62 758.804 644.94 719.609 598.24 682.928C557.541 650.962 548.297 591.142 522.158 543.65C496.708 497.409 448.966 462.976 447.262 408.611C445.52 353.05 481.011 305.914 513.391 263.94C544.863 223.142 583.245 191.109 628.623 173.509C676.872 154.795 730.379 139.653 777.589 161.469Z" fill="url(#paint0_linear)"/>
    </g>
    <path d="M84.6961 669.682C78.9447 665.943 78.9441 659.883 84.6949 656.145L785.813 200.438C791.564 196.7 800.888 196.7 806.64 200.439L1112.11 398.988C1117.87 402.727 1117.87 408.787 1112.12 412.525L410.997 868.232C405.246 871.97 395.922 871.97 390.17 868.231L84.6961 669.682Z" fill="#191E2C"/>
    <g filter="url(#filter1_dddddd)">
        <path d="M84.6961 664.283C78.9447 660.545 78.9441 654.484 84.6949 650.746L785.813 195.039C791.564 191.301 800.888 191.302 806.64 195.04L1112.11 393.59C1117.87 397.328 1117.87 403.388 1112.12 407.126L410.997 862.833C405.246 866.571 395.922 866.571 390.17 862.832L84.6961 664.283Z" fill="#191E2C"/>
    </g>
    <g filter="url(#filter2_d)">
        <path d="M383.664 516.064L399.075 506.214C402.758 503.86 406.714 502.238 410.943 501.348C415.172 500.417 419.336 500.27 423.434 500.906C427.564 501.523 431.321 502.912 434.707 505.076C438.092 507.24 440.267 509.643 441.231 512.283C442.227 514.902 442.013 517.573 440.589 520.297C439.164 522.98 436.391 526.193 433.664 528.351L426.108 533.663L435.482 540.358L428.21 546.556L383.664 516.064ZM426.108 523.989C429.5 521.821 431.263 519.499 431.396 517.024C431.529 514.506 429.983 512.217 426.759 510.157C423.535 508.096 419.97 507.118 416.065 507.223C412.16 507.288 408.511 508.404 405.119 510.573L397.947 515.158L418.936 528.574L426.108 523.989Z" fill="white"/>
        <path d="M449.119 492.723L441.585 472.674L449.119 465.99L459.629 496.733L473.665 511.142L467.301 517.34L451.846 502.289L419.119 490.78L427.301 484.582L449.119 492.723Z" fill="white"/>
        <path d="M271.384 650.823C264.793 654.994 257.833 657.096 250.504 657.129C243.217 657.134 236.199 654.999 229.446 650.725L203.664 634.405L214.34 627.647L239.728 643.717C247.971 648.935 255.52 649.374 262.373 645.036C265.713 642.922 267.275 640.685 267.059 638.323C266.799 635.934 264.544 633.394 260.29 630.702L234.902 614.632L245.448 607.957L271.23 624.277C277.982 628.551 281.333 633.008 281.28 637.647C281.273 642.259 277.975 646.651 271.384 650.823Z" fill="white"/>
        <path d="M316.665 622.16C313.018 624.468 309 626.402 304.607 627.96C300.216 629.463 296.198 630.369 292.556 630.677L288.156 623.303C291.58 622.968 295.093 622.216 298.694 621.046C302.294 619.877 305.458 618.43 308.182 616.706C311.213 614.787 313.014 613.091 313.589 611.618C314.118 610.118 313.636 608.896 312.145 607.952C311.049 607.258 309.711 606.967 308.131 607.08C306.551 607.136 304.86 607.457 303.06 608.041C301.304 608.598 299.02 609.433 296.209 610.546C291.862 612.244 288.151 613.538 285.076 614.429C282.002 615.32 278.733 615.697 275.265 615.56C271.842 615.396 268.594 614.342 265.525 612.4C262.851 610.707 261.165 608.721 260.465 606.444C259.724 604.138 260.167 601.665 261.794 599.025C263.467 596.357 266.413 593.687 270.629 591.018C273.573 589.154 276.802 587.555 280.316 586.219C283.829 584.883 287.298 583.964 290.722 583.462L295.516 590.668C288.844 591.839 283.376 593.774 279.114 596.471C276.127 598.363 274.389 600.072 273.905 601.601C273.464 603.101 274.033 604.351 275.611 605.35C277.189 606.349 279.185 606.584 281.6 606.055C284.015 605.47 287.287 604.342 291.416 602.673C295.764 600.975 299.475 599.681 302.549 598.79C305.622 597.899 308.849 597.522 312.227 597.659C315.651 597.767 318.898 598.793 321.967 600.736C324.598 602.401 326.262 604.401 326.962 606.734C327.66 609.012 327.173 611.485 325.5 614.153C323.829 616.821 320.884 619.49 316.665 622.16Z" fill="white"/>
        <path d="M295.387 576.345L316.345 563.079C321.354 559.909 326.734 557.724 332.487 556.526C338.238 555.272 343.899 555.074 349.472 555.931C355.09 556.761 360.199 558.633 364.803 561.548C369.407 564.462 372.365 567.696 373.676 571.252C375.03 574.779 374.739 578.377 372.803 582.046C370.865 585.659 367.392 589.051 362.385 592.221L341.427 605.487L295.387 576.345ZM353.11 587.018C357.723 584.098 360.119 580.971 360.301 577.637C360.481 574.247 358.379 571.164 353.996 568.389C349.61 565.614 344.763 564.297 339.452 564.439C334.141 564.526 329.179 566.03 324.565 568.95L314.812 575.124L343.356 593.192L353.11 587.018Z" fill="white"/>
        <path d="M399.565 566.403C392.974 570.574 389.174 573.083 381.845 573.116L378.685 564.262C380.721 564.262 383.701 564.954 390.554 560.616C393.894 558.502 395.456 556.265 395.239 553.903C394.979 551.514 392.725 548.973 388.47 546.281L371.845 535.932L360.936 543.9L352.754 538.588L373.628 523.537L399.41 539.857C406.163 544.131 409.514 548.587 409.461 553.227C409.454 557.839 406.156 562.231 399.565 566.403Z" fill="white"/>
    </g>
    <g filter="url(#filter3_d)">
        <path d="M1105.19 379.933C1107.26 381.275 1107.37 383.376 1105.45 384.625L1000.93 452.563C999.005 453.813 995.772 453.738 993.707 452.396C991.642 451.053 991.527 448.952 993.45 447.703L1097.97 379.765C1099.9 378.515 1103.13 378.59 1105.19 379.933Z" fill="#EA712C"/>
    </g>
    <g filter="url(#filter4_d)">
        <path d="M984.87 458.14C986.935 459.482 987.06 461.577 985.149 462.819L881.263 530.342C879.352 531.584 876.129 531.503 874.064 530.161C871.999 528.819 871.874 526.724 873.785 525.482L977.671 457.959C979.582 456.716 982.806 456.798 984.87 458.14Z" fill="#EA712C"/>
    </g>
    <g filter="url(#filter5_d)">
        <path d="M865.906 535.463C867.971 536.805 868.095 538.9 866.184 540.142L762.298 607.666C760.387 608.908 757.164 608.827 755.099 607.484C753.034 606.142 752.909 604.047 754.82 602.805L858.707 535.282C860.618 534.04 863.841 534.121 865.906 535.463Z" fill="#1BC53C"/>
    </g>
    <g filter="url(#filter6_d)">
        <path d="M746.941 612.787C749.006 614.129 749.121 616.23 747.198 617.48L642.674 685.417C640.752 686.667 637.519 686.592 635.454 685.25C633.389 683.908 633.274 681.807 635.197 680.557L739.721 612.619C741.643 611.37 744.876 611.444 746.941 612.787Z" fill="#1BC53C"/>
    </g>
    <g filter="url(#filter7_d)">
        <path d="M627.977 690.11C630.042 691.452 630.167 693.547 628.256 694.789L524.369 762.313C522.458 763.555 519.235 763.474 517.17 762.131C515.105 760.789 514.98 758.694 516.891 757.452L620.778 689.929C622.689 688.687 625.912 688.768 627.977 690.11Z" fill="#1BC53C"/>
    </g>
    <g filter="url(#filter8_d)">
        <path d="M508.331 767.875C510.396 769.217 510.502 771.325 508.568 772.582L403.407 840.934C401.472 842.191 398.23 842.122 396.165 840.78C394.1 839.438 393.994 837.331 395.929 836.073L501.09 767.722C503.024 766.464 506.266 766.533 508.331 767.875Z" fill="#1BC53C"/>
    </g>
    <g filter="url(#filter9_d)">
        <path d="M292.755 670.176L351.252 708.197L337.745 716.976L290.112 686.016L278.44 693.603L267.576 686.541L292.755 670.176Z" fill="#1BC53C"/>
        <path d="M465.309 631.181C463.03 632.662 460.333 633.401 457.216 633.398C454.1 633.397 451.372 632.635 449.032 631.114C446.637 629.557 445.493 627.802 445.601 625.849C445.653 623.86 446.818 622.125 449.097 620.643C451.376 619.162 454.046 618.404 457.106 618.371C460.111 618.301 462.811 619.044 465.207 620.602C467.547 622.123 468.719 623.895 468.722 625.92C468.726 627.946 467.588 629.7 465.309 631.181Z" fill="#1BC53C"/>
        <path d="M462.96 551.535L471.735 557.238L499.779 603.645L485.106 613.183L458.567 568.73L439.224 581.302L448.751 587.494L436.745 595.298L416.188 581.936L462.96 551.535Z" fill="#1BC53C"/>
        <path fill-rule="evenodd" clip-rule="evenodd" d="M393.769 656.559C390.706 654.567 365.863 641.13 365.863 641.13C362.465 638.921 358.568 637.616 354.17 637.215C349.774 636.814 345.184 637.299 340.4 638.67C335.616 639.968 331.002 642.063 326.555 644.953C322.164 647.807 318.97 650.789 316.972 653.898C314.919 656.97 314.201 659.936 314.817 662.794C315.434 665.651 317.442 668.185 320.841 670.393C321.447 670.787 322.734 671.663 324.479 672.851C333.157 678.758 353.167 692.378 357.107 692.773C361.837 693.174 366.789 692.672 371.961 691.265C377.133 689.786 382.166 687.457 387.057 684.277C391.949 681.098 395.532 677.828 397.807 674.466C400.027 671.067 400.828 667.831 400.21 664.756C399.538 661.645 397.39 658.913 393.769 656.559ZM331.919 657.001C332.249 655.048 333.776 653.187 336.5 651.417C339.279 649.61 342.171 648.6 345.175 648.385C348.125 648.134 350.74 648.751 353.025 650.235C355.253 651.684 357.376 653.119 357.376 653.119C357.376 653.119 377.115 663.509 379.678 665.175C382.241 666.84 383.302 668.831 382.861 671.145C382.42 673.387 380.503 675.61 377.112 677.814C373.777 679.982 370.385 681.209 366.936 681.496C363.97 681.742 344.32 668.447 337.204 663.632C336.043 662.847 335.216 662.288 334.849 662.049C332.565 660.564 331.588 658.882 331.919 657.001Z" fill="#1BC53C"/>
        <path d="M520.181 560.174C516.287 562.313 512.03 563.718 507.407 564.388C502.783 565.059 498.22 564.899 493.717 563.91C489.266 562.961 485.322 561.179 481.884 558.564C478.182 555.749 475.946 552.717 475.177 549.467C474.406 546.218 475.026 543.037 477.037 539.922C479.042 536.88 482.194 534.178 486.493 531.816C495.033 527.122 504.094 525.259 513.677 526.229C523.258 527.199 532.465 531.042 541.297 537.759C547.591 542.545 551.679 547.367 553.561 552.223C555.441 557.078 555.221 561.668 552.9 565.992C550.522 570.348 546.254 574.218 540.095 577.603C536.842 579.391 533.389 580.837 529.74 581.943C526.083 583.12 522.602 583.822 519.293 584.046L515.082 573.993C519.954 573.74 524.686 572.353 529.275 569.83C534.446 566.989 537.166 563.692 537.437 559.94C537.708 556.188 535.341 552.257 530.337 548.148C530.014 552.622 526.629 556.63 520.181 560.174ZM496.876 538.685C493.855 540.344 492.156 542.249 491.777 544.396C491.341 546.577 492.393 548.632 494.931 550.562C497.47 552.493 500.438 553.495 503.836 553.567C507.229 553.712 510.494 552.922 513.631 551.198C516.711 549.505 518.445 547.513 518.833 545.221C519.274 542.969 518.279 540.918 515.846 539.068C513.414 537.218 510.471 536.236 507.02 536.123C503.569 536.011 500.188 536.864 496.876 538.685Z" fill="#1BC53C"/>
        <path d="M401.476 594.307L410.251 600.01L438.295 646.418L423.621 655.955L397.082 611.502L377.74 624.074L387.266 630.266L375.261 638.07L354.703 624.708L401.476 594.307Z" fill="#1BC53C"/>
        <path d="M567.933 514.092C573.883 511.311 579.723 510.013 585.455 510.198C591.131 510.347 596.17 511.852 600.571 514.713C603.969 516.922 606.228 519.545 607.347 522.585C608.408 525.587 607.97 528.842 606.027 532.349C604.142 535.82 600.559 539.271 595.278 542.704C591.165 545.377 586.578 547.67 581.518 549.583C576.457 551.424 571.534 552.596 566.749 553.099L561.641 542.95C565.534 542.591 569.401 541.78 573.239 540.517C577.076 539.182 580.523 537.52 583.58 535.533C586.97 533.33 588.997 531.179 589.662 529.082C590.27 526.948 589.377 525.103 586.98 523.546C582.19 520.432 576.154 521.241 568.872 525.974L562.702 529.984L553.761 524.172L552.145 507.515L527.3 523.664L516.436 516.603L557.29 490.049L566.065 495.753L567.933 514.092Z" fill="#1BC53C"/>
    </g>
    <g style="mix-blend-mode:multiply">
        <path d="M717.962 351.725C714.921 349.749 714.923 346.69 717.69 344.892C720.457 343.093 725.163 343.092 728.204 345.068L731.739 347.366C734.78 349.343 734.778 352.401 732.011 354.2C729.244 355.998 724.538 356 721.497 354.023L717.962 351.725Z" stroke="#505561" stroke-width="4"/>
        <path d="M734.879 331.792C731.976 329.905 731.976 326.769 735.025 324.787C738.073 322.806 742.898 322.806 745.801 324.693L756.289 331.51C759.192 333.397 759.192 336.532 756.144 338.514C753.095 340.496 748.27 340.496 745.367 338.609L734.879 331.792Z" stroke="#505561" stroke-width="4"/>
        <path d="M751.981 311.095C748.994 309.154 748.994 305.986 752.019 304.021C755.043 302.055 759.916 302.055 762.903 303.996L780.653 315.533C783.64 317.475 783.64 320.642 780.615 322.608C777.591 324.573 772.718 324.573 769.731 322.632L751.981 311.095Z" stroke="#505561" stroke-width="4"/>
    </g>
    <g filter="url(#filter10_d)">
        <path d="M836.425 320.862C834.589 316.197 841.266 311.858 848.443 313.051L921.108 325.129C928.284 326.322 930.579 332.153 925.237 335.625L871.156 370.776C865.814 374.248 856.843 372.757 855.008 368.092L836.425 320.862Z" fill="#1BC53C"/>
    </g>
    <g filter="url(#filter11_d)">
        <path d="M716.285 343.818C712.38 341.28 712.258 337.244 716.013 334.804C719.767 332.364 725.976 332.443 729.881 334.981L733.416 337.278C737.32 339.816 737.442 343.852 733.688 346.292C729.933 348.732 723.724 348.653 719.82 346.115L716.285 343.818Z" fill="white"/>
        <path d="M733.202 323.884C729.34 321.374 729.406 317.262 733.348 314.7C737.29 312.137 743.616 312.095 747.478 314.605L757.966 321.422C761.828 323.932 761.763 328.044 757.82 330.606C753.878 333.169 747.552 333.211 743.69 330.701L733.202 323.884Z" fill="white"/>
        <path d="M750.304 303.187C746.383 300.638 746.4 296.495 750.342 293.933C754.284 291.371 760.659 291.36 764.58 293.908L782.33 305.445C786.251 307.994 786.235 312.137 782.292 314.7C778.35 317.262 771.976 317.273 768.054 314.724L750.304 303.187Z" fill="white"/>
    </g>
    <path opacity="0.2" fill-rule="evenodd" clip-rule="evenodd" d="M802.73 301.414L778.504 285.668C776.593 284.426 773.446 284.458 771.475 285.739C769.504 287.02 769.455 289.066 771.366 290.308L795.592 306.054C797.503 307.296 800.651 307.265 802.622 305.983C804.593 304.702 804.641 302.657 802.73 301.414ZM768.014 283.489C764.072 286.052 763.975 290.143 767.798 292.628L792.023 308.373C795.846 310.858 802.14 310.795 806.082 308.233C810.025 305.671 810.121 301.579 806.299 299.095L782.073 283.349C778.251 280.864 771.956 280.927 768.014 283.489Z" fill="white"/>
    <path opacity="0.2" fill-rule="evenodd" clip-rule="evenodd" d="M828.073 284.968L797.012 264.779C795.106 263.54 792.039 263.525 790.161 264.745C788.284 265.965 788.308 267.958 790.214 269.197L821.275 289.386C823.181 290.625 826.248 290.641 828.125 289.42C830.003 288.2 829.979 286.207 828.073 284.968ZM786.71 262.502C782.956 264.942 783.002 268.929 786.815 271.407L817.876 291.596C821.688 294.073 827.822 294.104 831.577 291.664C835.331 289.223 835.284 285.236 831.472 282.759L800.411 262.57C796.598 260.092 790.464 260.061 786.71 262.502Z" fill="white"/>
    <g filter="url(#filter12_d)">
        <path d="M454.12 705.464L480.258 722.453L475.251 725.707L453.183 711.364L447.482 715.069L443.412 712.423L454.12 705.464Z" fill="#505561"/>
        <path d="M468.789 695.929L494.927 712.918L489.92 716.173L467.852 701.829L462.151 705.534L458.081 702.889L468.789 695.929Z" fill="#505561"/>
        <path d="M489.314 698.412C488.441 698.98 487.411 699.278 486.222 699.306C485.008 699.318 483.953 699.033 483.057 698.451C482.136 697.852 481.684 697.175 481.702 696.419C481.746 695.646 482.217 694.967 483.116 694.383C484.015 693.799 485.046 693.501 486.209 693.49C487.398 693.461 488.452 693.746 489.374 694.345C490.27 694.927 490.708 695.613 490.69 696.402C490.646 697.175 490.188 697.845 489.314 698.412ZM503.541 707.659C502.668 708.227 501.637 708.525 500.449 708.553C499.235 708.565 498.18 708.28 497.284 707.698C496.363 707.099 495.911 706.422 495.929 705.666C495.973 704.893 496.444 704.215 497.343 703.63C498.242 703.046 499.272 702.748 500.436 702.737C501.624 702.708 502.679 702.993 503.6 703.592C504.497 704.175 504.935 704.86 504.916 705.649C504.873 706.422 504.414 707.092 503.541 707.659Z" fill="#505561"/>
        <path d="M502.095 687.436C505.895 684.966 509.429 683.607 512.696 683.361C515.938 683.098 518.791 683.768 521.255 685.37C522.824 686.389 523.845 687.57 524.318 688.912C524.792 690.255 524.606 691.686 523.761 693.207C522.916 694.727 521.325 696.246 518.988 697.765C517.062 699.017 514.939 700.057 512.619 700.885C510.274 701.698 508.012 702.197 505.834 702.383L504.181 698.555C505.979 698.422 507.808 698.058 509.667 697.464C511.528 696.838 513.202 696.04 514.692 695.072C516.463 693.921 517.501 692.793 517.806 691.689C518.111 690.552 517.641 689.579 516.397 688.77C515.052 687.897 513.492 687.6 511.716 687.881C509.94 688.129 507.73 689.112 505.085 690.831L498.576 695.062L485.736 684.914L501.566 674.625L505.636 677.27L494.043 684.806L499.514 689.113L502.095 687.436Z" fill="#505561"/>
        <path d="M528.114 671.397C530.904 669.973 533.626 669.272 536.279 669.294C538.933 669.317 541.268 669.983 543.285 671.294C544.803 672.281 545.787 673.438 546.236 674.764C546.684 676.09 546.473 677.522 545.602 679.059C544.732 680.563 543.142 682.066 540.831 683.568C538.905 684.82 536.782 685.86 534.462 686.688C532.142 687.484 529.881 687.983 527.676 688.186L526.062 684.333C527.834 684.216 529.65 683.861 531.51 683.267C533.37 682.641 535.045 681.843 536.534 680.875C538.306 679.724 539.344 678.596 539.648 677.492C539.954 676.355 539.496 675.39 538.276 674.598C537.057 673.805 535.623 673.507 533.975 673.704C532.328 673.869 530.516 674.594 528.539 675.879L526.074 677.481L522.75 675.321L521.817 666.753L509.569 674.714L505.499 672.069L523.871 660.127L527.119 662.239L528.114 671.397Z" fill="#505561"/>
    </g>
    <g filter="url(#filter13_d)">
        <path fill-rule="evenodd" clip-rule="evenodd" d="M391.044 733.205C378.286 741.498 378.309 754.943 391.067 763.236C403.826 771.528 424.512 771.543 437.27 763.251C450.052 754.943 450.052 741.483 437.293 733.19C424.535 724.897 403.826 724.897 391.044 733.205ZM432.671 760.231C422.455 766.871 405.906 766.871 395.69 760.231C385.474 753.591 385.474 742.835 395.69 736.195C405.906 729.555 422.455 729.555 432.671 736.195C442.887 742.835 442.887 753.591 432.671 760.231ZM400.312 742.204L403.779 739.95L415.914 747.837L432.486 745.088L433.595 748.063L414.18 751.217L400.312 742.204Z" fill="#505561"/>
    </g>
    <g filter="url(#filter14_d)">
        <path fill-rule="evenodd" clip-rule="evenodd" d="M585.829 606.601C572.883 615.015 572.731 628.575 585.489 636.867C598.247 645.16 619.109 645.061 632.055 636.646C645.001 628.232 645.153 614.672 632.395 606.38C619.637 598.087 598.775 598.186 585.829 606.601ZM609.086 608.791C603.638 608.816 598.686 610.262 595.074 612.61L608.942 621.624L608.798 634.457C619.694 634.405 628.606 628.612 628.709 621.515C628.789 614.432 620.006 608.724 609.086 608.791ZM590.18 633.819C600.396 640.459 617.066 640.38 627.432 633.642C637.799 626.904 637.92 616.069 627.704 609.429C617.488 602.788 600.818 602.868 590.452 609.605C580.085 616.343 579.964 627.178 590.18 633.819Z" fill="#505561"/>
    </g>
    <g filter="url(#filter15_d)">
        <path d="M657.154 586.133C660.943 583.67 664.485 582.329 667.782 582.109C671.053 581.872 673.951 582.575 676.475 584.215C678.081 585.26 679.138 586.462 679.645 587.823C680.152 589.184 679.994 590.629 679.172 592.158C678.35 593.687 676.774 595.208 674.445 596.723C672.525 597.97 670.401 599.003 668.073 599.819C665.721 600.619 663.445 601.104 661.247 601.273L659.496 597.389C661.311 597.271 663.151 596.92 665.018 596.336C666.885 595.719 668.561 594.928 670.046 593.963C671.812 592.815 672.837 591.685 673.122 590.572C673.406 589.425 672.911 588.438 671.636 587.609C670.259 586.714 668.676 586.401 666.887 586.669C665.097 586.903 662.884 587.878 660.248 589.591L653.758 593.809L640.568 583.439L656.35 573.181L660.519 575.891L648.961 583.403L654.581 587.805L657.154 586.133Z" fill="#505561"/>
        <path d="M704.876 549.596C707.461 547.916 710.261 547.073 713.276 547.07C716.266 547.049 719.252 548.009 722.235 549.948L733.94 557.555L729.14 560.675L718.047 553.465C716.262 552.305 714.527 551.693 712.841 551.629C711.129 551.548 709.531 551.99 708.046 552.955C706.434 554.003 705.676 555.191 705.775 556.52C705.847 557.832 706.865 559.126 708.829 560.402L719.194 567.139L714.395 570.259L703.302 563.049C701.517 561.889 699.782 561.277 698.096 561.213C696.384 561.132 694.786 561.574 693.301 562.539C691.663 563.604 690.88 564.792 690.953 566.104C691.051 567.399 692.095 568.693 694.084 569.986L704.449 576.723L699.649 579.843L679.224 566.567L683.794 563.597L686.395 565.288C686.245 564.192 686.503 563.112 687.171 562.048C687.838 560.985 688.876 559.995 690.284 559.08C691.82 558.082 693.47 557.391 695.234 557.006C696.998 556.589 698.787 556.52 700.6 556.8C700.374 555.555 700.633 554.309 701.378 553.063C702.097 551.8 703.263 550.644 704.876 549.596Z" fill="#505561"/>
        <path d="M719.648 540.293L724.448 537.173L744.873 550.449L740.073 553.568L719.648 540.293ZM718.701 536.533C717.831 537.098 716.834 537.398 715.709 537.433C714.56 537.451 713.577 537.195 712.761 536.665C711.945 536.134 711.563 535.504 711.617 534.773C711.644 534.026 712.094 533.369 712.964 532.803C713.834 532.238 714.832 531.937 715.956 531.903C717.055 531.852 717.999 532.083 718.79 532.597C719.631 533.144 720.051 533.799 720.049 534.563C720.046 535.294 719.597 535.95 718.701 536.533Z" fill="#505561"/>
        <path d="M742.153 525.367C744.739 523.686 747.565 522.827 750.631 522.79C753.697 522.753 756.709 523.696 759.667 525.618L771.371 533.226L766.571 536.346L755.479 529.136C753.694 527.976 751.933 527.38 750.195 527.349C748.433 527.302 746.77 527.785 745.209 528.8C743.443 529.948 742.583 531.203 742.63 532.565C742.651 533.91 743.657 535.229 745.646 536.522L755.973 543.234L751.173 546.354L730.748 533.078L735.317 530.108L737.957 531.824C737.807 530.694 738.091 529.581 738.81 528.485C739.528 527.388 740.643 526.348 742.153 525.367Z" fill="#505561"/>
    </g>
    <g filter="url(#filter16_d)">
        <path fill-rule="evenodd" clip-rule="evenodd" d="M827.266 478.836L848.999 478.937L849.047 483.237L820.7 483.104L820.496 464.679L827.11 464.71L827.266 478.836ZM861.039 456.885L861.195 471.011L867.809 471.042L867.605 452.616L839.258 452.484L839.306 456.783L861.039 456.885Z" fill="#505561"/>
    </g>
    <g filter="url(#filter17_d)">
        <path d="M887.845 422.29C890.165 420.782 892.567 419.724 895.05 419.117C897.558 418.493 899.993 418.353 902.357 418.695C904.72 419.038 906.895 419.855 908.882 421.147C910.843 422.422 912.101 423.836 912.654 425.388C913.181 426.924 912.965 428.507 912.005 430.138C911.071 431.751 909.443 433.312 907.123 434.82L901.08 438.748L908.899 443.831L903.927 447.063L876.829 429.45L887.845 422.29ZM902.635 432.202C904.803 430.793 905.983 429.422 906.176 428.089C906.369 426.756 905.601 425.527 903.872 424.404C902.142 423.28 900.252 422.781 898.201 422.906C896.15 423.031 894.041 423.798 891.874 425.207L886.06 428.986L896.822 435.981L902.635 432.202Z" fill="#505561"/>
        <path d="M940.367 423.881C938.301 425.224 936.003 426.332 933.471 427.206C930.965 428.063 928.661 428.537 926.558 428.629L924.37 424.969C926.344 424.827 928.405 424.426 930.554 423.768C932.702 423.076 934.579 422.208 936.186 421.164C938.175 419.871 939.331 418.7 939.655 417.651C940.004 416.585 939.65 415.708 938.592 415.021C937.817 414.518 936.905 414.289 935.853 414.335C934.802 414.347 933.713 414.535 932.588 414.897C931.463 415.26 929.993 415.796 928.178 416.506C925.648 417.513 923.5 418.271 921.734 418.781C919.995 419.275 918.15 419.484 916.199 419.41C914.249 419.302 912.383 418.67 910.603 417.513C909.106 416.54 908.146 415.402 907.724 414.1C907.301 412.764 907.531 411.34 908.415 409.826C909.325 408.296 910.952 406.768 913.298 405.243C914.93 404.183 916.743 403.273 918.737 402.513C920.731 401.754 922.688 401.253 924.61 401.011L926.952 404.571C925.082 404.881 923.329 405.332 921.693 405.926C920.056 406.52 918.639 407.207 917.441 407.986C915.477 409.262 914.347 410.433 914.049 411.499C913.776 412.548 914.195 413.433 915.304 414.155C916.079 414.658 916.979 414.895 918.004 414.865C919.056 414.819 920.144 414.615 921.269 414.253C922.395 413.89 923.865 413.354 925.68 412.644C928.133 411.654 930.255 410.912 932.046 410.418C933.812 409.908 935.657 409.699 937.581 409.79C939.532 409.864 941.384 410.472 943.139 411.612C944.636 412.585 945.583 413.731 945.98 415.05C946.402 416.352 946.159 417.768 945.249 419.298C944.34 420.829 942.712 422.356 940.367 423.881Z" fill="#505561"/>
        <path d="M966.828 398.027L953.441 406.728L957.073 412.519L951.948 415.851L936.899 390.407L941.794 387.225L980.978 396.981L975.777 400.362L966.828 398.027ZM961.235 396.529L944.341 392.112L951.175 403.068L961.235 396.529Z" fill="#505561"/>
        <path d="M1001.9 383.382L988.496 381.779C988.292 381.945 987.961 382.177 987.502 382.476L981.459 386.404L989.356 391.536L984.383 394.768L957.286 377.156L968.301 369.996C970.622 368.488 973.023 367.43 975.506 366.823C978.014 366.199 980.45 366.058 982.813 366.401C985.176 366.744 987.351 367.561 989.339 368.853C991.377 370.178 992.635 371.641 993.111 373.244C993.613 374.83 993.308 376.454 992.195 378.117L1007.26 379.902L1001.9 383.382ZM984.328 372.109C982.599 370.985 980.709 370.486 978.658 370.612C976.607 370.737 974.498 371.504 972.33 372.913L966.516 376.692L977.317 383.711L983.13 379.933C985.298 378.524 986.478 377.153 986.671 375.82C986.838 374.47 986.057 373.233 984.328 372.109Z" fill="#505561"/>
    </g>
    <defs>
        <filter id="filter0_f" x="297.2" y="0.712524" width="823.298" height="889.294" filterUnits="userSpaceOnUse" color-interpolation-filters="sRGB">
            <feFlood flood-opacity="0" result="BackgroundImageFix"/>
            <feBlend mode="normal" in="SourceGraphic" in2="BackgroundImageFix" result="shape"/>
            <feGaussianBlur stdDeviation="75" result="effect1_foregroundBlur"/>
        </filter>
        <filter id="filter1_dddddd" x="0.381836" y="192.236" width="1196.05" height="853.401" filterUnits="userSpaceOnUse" color-interpolation-filters="sRGB">
            <feFlood flood-opacity="0" result="BackgroundImageFix"/>
            <feColorMatrix in="SourceAlpha" type="matrix" values="0 0 0 0 0 0 0 0 0 0 0 0 0 0 0 0 0 0 127 0"/>
            <feOffset dy="2.76726"/>
            <feGaussianBlur stdDeviation="1.1069"/>
            <feColorMatrix type="matrix" values="0 0 0 0 0 0 0 0 0 0 0 0 0 0 0 0 0 0 0.216482 0"/>
            <feBlend mode="normal" in2="BackgroundImageFix" result="effect1_dropShadow"/>
            <feColorMatrix in="SourceAlpha" type="matrix" values="0 0 0 0 0 0 0 0 0 0 0 0 0 0 0 0 0 0 127 0"/>
            <feOffset dy="6.6501"/>
            <feGaussianBlur stdDeviation="2.66004"/>
            <feColorMatrix type="matrix" values="0 0 0 0 0 0 0 0 0 0 0 0 0 0 0 0 0 0 0.310997 0"/>
            <feBlend mode="normal" in2="effect1_dropShadow" result="effect2_dropShadow"/>
            <feColorMatrix in="SourceAlpha" type="matrix" values="0 0 0 0 0 0 0 0 0 0 0 0 0 0 0 0 0 0 127 0"/>
            <feOffset dy="12.5216"/>
            <feGaussianBlur stdDeviation="5.00862"/>
            <feColorMatrix type="matrix" values="0 0 0 0 0 0 0 0 0 0 0 0 0 0 0 0 0 0 0.385 0"/>
            <feBlend mode="normal" in2="effect2_dropShadow" result="effect3_dropShadow"/>
            <feColorMatrix in="SourceAlpha" type="matrix" values="0 0 0 0 0 0 0 0 0 0 0 0 0 0 0 0 0 0 127 0"/>
            <feOffset dy="22.3363"/>
            <feGaussianBlur stdDeviation="8.93452"/>
            <feColorMatrix type="matrix" values="0 0 0 0 0 0 0 0 0 0 0 0 0 0 0 0 0 0 0.459003 0"/>
            <feBlend mode="normal" in2="effect3_dropShadow" result="effect4_dropShadow"/>
            <feColorMatrix in="SourceAlpha" type="matrix" values="0 0 0 0 0 0 0 0 0 0 0 0 0 0 0 0 0 0 127 0"/>
            <feOffset dy="41.7776"/>
            <feGaussianBlur stdDeviation="16.711"/>
            <feColorMatrix type="matrix" values="0 0 0 0 0 0 0 0 0 0 0 0 0 0 0 0 0 0 0.553518 0"/>
            <feBlend mode="normal" in2="effect4_dropShadow" result="effect5_dropShadow"/>
            <feColorMatrix in="SourceAlpha" type="matrix" values="0 0 0 0 0 0 0 0 0 0 0 0 0 0 0 0 0 0 127 0"/>
            <feOffset dy="100"/>
            <feGaussianBlur stdDeviation="40"/>
            <feColorMatrix type="matrix" values="0 0 0 0 0 0 0 0 0 0 0 0 0 0 0 0 0 0 0.77 0"/>
            <feBlend mode="normal" in2="effect5_dropShadow" result="effect6_dropShadow"/>
            <feBlend mode="normal" in="SourceGraphic" in2="effect6_dropShadow" result="shape"/>
        </filter>
        <filter id="filter2_d" x="188.664" y="465.99" width="300.001" height="221.139" filterUnits="userSpaceOnUse" color-interpolation-filters="sRGB">
            <feFlood flood-opacity="0" result="BackgroundImageFix"/>
            <feColorMatrix in="SourceAlpha" type="matrix" values="0 0 0 0 0 0 0 0 0 0 0 0 0 0 0 0 0 0 127 0"/>
            <feOffset dy="15"/>
            <feGaussianBlur stdDeviation="7.5"/>
            <feColorMatrix type="matrix" values="0 0 0 0 1 0 0 0 0 1 0 0 0 0 1 0 0 0 0.4 0"/>
            <feBlend mode="normal" in2="BackgroundImageFix" result="effect1_dropShadow"/>
            <feBlend mode="normal" in="SourceGraphic" in2="effect1_dropShadow" result="shape"/>
        </filter>
        <filter id="filter3_d" x="977.08" y="378.875" width="144.741" height="104.579" filterUnits="userSpaceOnUse" color-interpolation-filters="sRGB">
            <feFlood flood-opacity="0" result="BackgroundImageFix"/>
            <feColorMatrix in="SourceAlpha" type="matrix" values="0 0 0 0 0 0 0 0 0 0 0 0 0 0 0 0 0 0 127 0"/>
            <feOffset dy="15"/>
            <feGaussianBlur stdDeviation="7.5"/>
            <feColorMatrix type="matrix" values="0 0 0 0 0.917647 0 0 0 0 0.443137 0 0 0 0 0.172549 0 0 0 1 0"/>
            <feBlend mode="normal" in2="BackgroundImageFix" result="effect1_dropShadow"/>
            <feBlend mode="normal" in="SourceGraphic" in2="effect1_dropShadow" result="shape"/>
        </filter>
        <filter id="filter4_d" x="857.43" y="457.078" width="144.075" height="104.146" filterUnits="userSpaceOnUse" color-interpolation-filters="sRGB">
            <feFlood flood-opacity="0" result="BackgroundImageFix"/>
            <feColorMatrix in="SourceAlpha" type="matrix" values="0 0 0 0 0 0 0 0 0 0 0 0 0 0 0 0 0 0 127 0"/>
            <feOffset dy="15"/>
            <feGaussianBlur stdDeviation="7.5"/>
            <feColorMatrix type="matrix" values="0 0 0 0 0.917647 0 0 0 0 0.443137 0 0 0 0 0.172549 0 0 0 1 0"/>
            <feBlend mode="normal" in2="BackgroundImageFix" result="effect1_dropShadow"/>
            <feBlend mode="normal" in="SourceGraphic" in2="effect1_dropShadow" result="shape"/>
        </filter>
        <filter id="filter5_d" x="738.465" y="534.401" width="144.075" height="104.146" filterUnits="userSpaceOnUse" color-interpolation-filters="sRGB">
            <feFlood flood-opacity="0" result="BackgroundImageFix"/>
            <feColorMatrix in="SourceAlpha" type="matrix" values="0 0 0 0 0 0 0 0 0 0 0 0 0 0 0 0 0 0 127 0"/>
            <feOffset dy="15"/>
            <feGaussianBlur stdDeviation="7.5"/>
            <feColorMatrix type="matrix" values="0 0 0 0 0.105882 0 0 0 0 0.772549 0 0 0 0 0.235294 0 0 0 1 0"/>
            <feBlend mode="normal" in2="BackgroundImageFix" result="effect1_dropShadow"/>
            <feBlend mode="normal" in="SourceGraphic" in2="effect1_dropShadow" result="shape"/>
        </filter>
        <filter id="filter6_d" x="618.827" y="611.729" width="144.741" height="104.579" filterUnits="userSpaceOnUse" color-interpolation-filters="sRGB">
            <feFlood flood-opacity="0" result="BackgroundImageFix"/>
            <feColorMatrix in="SourceAlpha" type="matrix" values="0 0 0 0 0 0 0 0 0 0 0 0 0 0 0 0 0 0 127 0"/>
            <feOffset dy="15"/>
            <feGaussianBlur stdDeviation="7.5"/>
            <feColorMatrix type="matrix" values="0 0 0 0 0.105882 0 0 0 0 0.772549 0 0 0 0 0.235294 0 0 0 1 0"/>
            <feBlend mode="normal" in2="BackgroundImageFix" result="effect1_dropShadow"/>
            <feBlend mode="normal" in="SourceGraphic" in2="effect1_dropShadow" result="shape"/>
        </filter>
        <filter id="filter7_d" x="500.536" y="689.048" width="144.075" height="104.146" filterUnits="userSpaceOnUse" color-interpolation-filters="sRGB">
            <feFlood flood-opacity="0" result="BackgroundImageFix"/>
            <feColorMatrix in="SourceAlpha" type="matrix" values="0 0 0 0 0 0 0 0 0 0 0 0 0 0 0 0 0 0 127 0"/>
            <feOffset dy="15"/>
            <feGaussianBlur stdDeviation="7.5"/>
            <feColorMatrix type="matrix" values="0 0 0 0 0.105882 0 0 0 0 0.772549 0 0 0 0 0.235294 0 0 0 1 0"/>
            <feBlend mode="normal" in2="BackgroundImageFix" result="effect1_dropShadow"/>
            <feBlend mode="normal" in="SourceGraphic" in2="effect1_dropShadow" result="shape"/>
        </filter>
        <filter id="filter8_d" x="379.544" y="766.822" width="145.408" height="105.012" filterUnits="userSpaceOnUse" color-interpolation-filters="sRGB">
            <feFlood flood-opacity="0" result="BackgroundImageFix"/>
            <feColorMatrix in="SourceAlpha" type="matrix" values="0 0 0 0 0 0 0 0 0 0 0 0 0 0 0 0 0 0 127 0"/>
            <feOffset dy="15"/>
            <feGaussianBlur stdDeviation="7.5"/>
            <feColorMatrix type="matrix" values="0 0 0 0 0.105882 0 0 0 0 0.772549 0 0 0 0 0.235294 0 0 0 1 0"/>
            <feBlend mode="normal" in2="BackgroundImageFix" result="effect1_dropShadow"/>
            <feBlend mode="normal" in="SourceGraphic" in2="effect1_dropShadow" result="shape"/>
        </filter>
        <filter id="filter9_d" x="252.576" y="490.049" width="370.334" height="256.927" filterUnits="userSpaceOnUse" color-interpolation-filters="sRGB">
            <feFlood flood-opacity="0" result="BackgroundImageFix"/>
            <feColorMatrix in="SourceAlpha" type="matrix" values="0 0 0 0 0 0 0 0 0 0 0 0 0 0 0 0 0 0 127 0"/>
            <feOffset dy="15"/>
            <feGaussianBlur stdDeviation="7.5"/>
            <feColorMatrix type="matrix" values="0 0 0 0 0.105882 0 0 0 0 0.772549 0 0 0 0 0.235294 0 0 0 0.4 0"/>
            <feBlend mode="normal" in2="BackgroundImageFix" result="effect1_dropShadow"/>
            <feBlend mode="normal" in="SourceGraphic" in2="effect1_dropShadow" result="shape"/>
        </filter>
        <filter id="filter10_d" x="821.117" y="312.851" width="122.053" height="89.832" filterUnits="userSpaceOnUse" color-interpolation-filters="sRGB">
            <feFlood flood-opacity="0" result="BackgroundImageFix"/>
            <feColorMatrix in="SourceAlpha" type="matrix" values="0 0 0 0 0 0 0 0 0 0 0 0 0 0 0 0 0 0 127 0"/>
            <feOffset dy="15"/>
            <feGaussianBlur stdDeviation="7.5"/>
            <feColorMatrix type="matrix" values="0 0 0 0 0.105882 0 0 0 0 0.772549 0 0 0 0 0.235294 0 0 0 0.4 0"/>
            <feBlend mode="normal" in2="BackgroundImageFix" result="effect1_dropShadow"/>
            <feBlend mode="normal" in="SourceGraphic" in2="effect1_dropShadow" result="shape"/>
        </filter>
        <filter id="filter11_d" x="698.274" y="292.004" width="101.985" height="86.0677" filterUnits="userSpaceOnUse" color-interpolation-filters="sRGB">
            <feFlood flood-opacity="0" result="BackgroundImageFix"/>
            <feColorMatrix in="SourceAlpha" type="matrix" values="0 0 0 0 0 0 0 0 0 0 0 0 0 0 0 0 0 0 127 0"/>
            <feOffset dy="15"/>
            <feGaussianBlur stdDeviation="7.5"/>
            <feColorMatrix type="matrix" values="0 0 0 0 1 0 0 0 0 1 0 0 0 0 1 0 0 0 0.4 0"/>
            <feBlend mode="normal" in2="BackgroundImageFix" result="effect1_dropShadow"/>
            <feBlend mode="normal" in="SourceGraphic" in2="effect1_dropShadow" result="shape"/>
        </filter>
        <filter id="filter12_d" x="433.412" y="660.127" width="123.052" height="85.5801" filterUnits="userSpaceOnUse" color-interpolation-filters="sRGB">
            <feFlood flood-opacity="0" result="BackgroundImageFix"/>
            <feColorMatrix in="SourceAlpha" type="matrix" values="0 0 0 0 0 0 0 0 0 0 0 0 0 0 0 0 0 0 127 0"/>
            <feOffset dy="10"/>
            <feGaussianBlur stdDeviation="5"/>
            <feColorMatrix type="matrix" values="0 0 0 0 0 0 0 0 0 0 0 0 0 0 0 0 0 0 0.6 0"/>
            <feBlend mode="normal" in2="BackgroundImageFix" result="effect1_dropShadow"/>
            <feBlend mode="normal" in="SourceGraphic" in2="effect1_dropShadow" result="shape"/>
        </filter>
        <filter id="filter13_d" x="371.486" y="726.972" width="85.3725" height="62.4902" filterUnits="userSpaceOnUse" color-interpolation-filters="sRGB">
            <feFlood flood-opacity="0" result="BackgroundImageFix"/>
            <feColorMatrix in="SourceAlpha" type="matrix" values="0 0 0 0 0 0 0 0 0 0 0 0 0 0 0 0 0 0 127 0"/>
            <feOffset dy="10"/>
            <feGaussianBlur stdDeviation="5"/>
            <feColorMatrix type="matrix" values="0 0 0 0 0 0 0 0 0 0 0 0 0 0 0 0 0 0 0.6 0"/>
            <feBlend mode="normal" in2="BackgroundImageFix" result="effect1_dropShadow"/>
            <feBlend mode="normal" in="SourceGraphic" in2="effect1_dropShadow" result="shape"/>
        </filter>
        <filter id="filter14_d" x="566.019" y="600.224" width="85.8462" height="62.7981" filterUnits="userSpaceOnUse" color-interpolation-filters="sRGB">
            <feFlood flood-opacity="0" result="BackgroundImageFix"/>
            <feColorMatrix in="SourceAlpha" type="matrix" values="0 0 0 0 0 0 0 0 0 0 0 0 0 0 0 0 0 0 127 0"/>
            <feOffset dy="10"/>
            <feGaussianBlur stdDeviation="5"/>
            <feColorMatrix type="matrix" values="0 0 0 0 0 0 0 0 0 0 0 0 0 0 0 0 0 0 0.6 0"/>
            <feBlend mode="normal" in2="BackgroundImageFix" result="effect1_dropShadow"/>
            <feBlend mode="normal" in="SourceGraphic" in2="effect1_dropShadow" result="shape"/>
        </filter>
        <filter id="filter15_d" x="630.567" y="522.789" width="150.803" height="98.4837" filterUnits="userSpaceOnUse" color-interpolation-filters="sRGB">
            <feFlood flood-opacity="0" result="BackgroundImageFix"/>
            <feColorMatrix in="SourceAlpha" type="matrix" values="0 0 0 0 0 0 0 0 0 0 0 0 0 0 0 0 0 0 127 0"/>
            <feOffset dy="10"/>
            <feGaussianBlur stdDeviation="5"/>
            <feColorMatrix type="matrix" values="0 0 0 0 0 0 0 0 0 0 0 0 0 0 0 0 0 0 0.6 0"/>
            <feBlend mode="normal" in2="BackgroundImageFix" result="effect1_dropShadow"/>
            <feBlend mode="normal" in="SourceGraphic" in2="effect1_dropShadow" result="shape"/>
        </filter>
        <filter id="filter16_d" x="810.495" y="452.484" width="67.3138" height="50.7527" filterUnits="userSpaceOnUse" color-interpolation-filters="sRGB">
            <feFlood flood-opacity="0" result="BackgroundImageFix"/>
            <feColorMatrix in="SourceAlpha" type="matrix" values="0 0 0 0 0 0 0 0 0 0 0 0 0 0 0 0 0 0 127 0"/>
            <feOffset dy="10"/>
            <feGaussianBlur stdDeviation="5"/>
            <feColorMatrix type="matrix" values="0 0 0 0 0 0 0 0 0 0 0 0 0 0 0 0 0 0 0.6 0"/>
            <feBlend mode="normal" in2="BackgroundImageFix" result="effect1_dropShadow"/>
            <feBlend mode="normal" in="SourceGraphic" in2="effect1_dropShadow" result="shape"/>
        </filter>
        <filter id="filter17_d" x="866.829" y="366.219" width="150.426" height="100.844" filterUnits="userSpaceOnUse" color-interpolation-filters="sRGB">
            <feFlood flood-opacity="0" result="BackgroundImageFix"/>
            <feColorMatrix in="SourceAlpha" type="matrix" values="0 0 0 0 0 0 0 0 0 0 0 0 0 0 0 0 0 0 127 0"/>
            <feOffset dy="10"/>
            <feGaussianBlur stdDeviation="5"/>
            <feColorMatrix type="matrix" values="0 0 0 0 0 0 0 0 0 0 0 0 0 0 0 0 0 0 0.6 0"/>
            <feBlend mode="normal" in2="BackgroundImageFix" result="effect1_dropShadow"/>
            <feBlend mode="normal" in="SourceGraphic" in2="effect1_dropShadow" result="shape"/>
        </filter>
        <linearGradient id="paint0_linear" x1="792.588" y1="167.979" x2="567.832" y2="683.501" gradientUnits="userSpaceOnUse">
            <stop stop-color="white"/>
            <stop offset="1" stop-color="#009BE0" stop-opacity="0.46"/>
        </linearGradient>
    </defs>
</svg>
