<svg width="1919" height="281" viewBox="0 0 1919 281" fill="none" xmlns="http://www.w3.org/2000/svg">
    <g opacity="0.15">
        <g opacity="0.2">
            <path d="M0 0V280.093" stroke="#F0F0F0"/>
            <path d="M478.704 0V280.093" stroke="#F0F0F0"/>
            <path d="M958.426 0V280.093" stroke="#F0F0F0"/>
            <path d="M1438.15 0V280.093" stroke="#F0F0F0"/>
            <path d="M1917.87 0V280.093" stroke="#F0F0F0"/>
            <path d="M0 280.092H1916.85" stroke="#F0F0F0"/>
            <path d="M0 233.24H1916.85" stroke="#F0F0F0"/>
            <path d="M0 186.389H1916.85" stroke="#F0F0F0"/>
            <path d="M0 139.537H1916.85" stroke="#F0F0F0"/>
            <path d="M0 92.6855H1916.85" stroke="#F0F0F0"/>
            <path d="M0 45.834H1916.85" stroke="#F0F0F0"/>
        </g>
        <path d="M0 85.5547C0 85.5547 239.352 123.24 478.704 123.24C718.056 123.24 718.056 179.258 958.426 179.258C1197.78 179.258 1197.78 224.073 1437.13 224.073C1676.48 224.073 1916.85 246.481 1916.85 246.481" stroke="#A6CEE3" stroke-width="2"/>
        <path d="M0 76.3887C0 76.3887 239.352 121.203 478.704 121.203C718.056 121.203 718.056 146.666 958.426 146.666C1197.78 146.666 1197.78 204.722 1437.13 204.722C1676.48 204.722 1916.85 251.574 1916.85 251.574" stroke="#1AA3E0" stroke-width="2"/>
        <path d="M0 92.6855C0 92.6855 239.352 144.63 478.704 144.63C718.056 144.63 718.056 179.26 958.426 179.26C1197.78 179.26 1197.78 206.76 1437.13 206.76C1676.48 206.76 1916.85 249.537 1916.85 249.537" stroke="#1AA3E0" stroke-width="2"/>
        <path d="M0 280.093C0 280.093 239.352 144.63 478.704 144.63C718.056 144.63 718.056 246.482 958.426 246.482C1197.78 246.482 1197.78 130.371 1437.13 130.371C1676.48 130.371 1916.85 280.093 1916.85 280.093" stroke="#1AA3E0" stroke-width="2"/>
        <path d="M0 233.241C0 233.241 239.352 190.463 478.704 190.463C718.056 190.463 718.056 137.501 958.426 137.501C1197.78 137.501 1197.78 94.7227 1437.13 94.7227C1676.48 94.7227 1916.85 41.7598 1916.85 41.7598" stroke="#1AA3E0" stroke-width="2"/>
        <path d="M0 226.111C0 226.111 239.352 190.462 478.704 190.462C718.056 190.462 718.056 134.444 958.426 134.444C1197.78 134.444 1197.78 85.555 1437.13 85.555C1676.48 85.555 1916.85 38.7031 1916.85 38.7031" stroke="#1AA3E0" stroke-width="2"/>
    </g>
</svg>
